<svg width="23" height="23" viewBox="0 0 23 23" fill="none" xmlns="http://www.w3.org/2000/svg">
<path d="M13.8809 6.76823C13.8809 7.42708 13.6488 7.98861 13.1846 8.4528C12.7204 8.91699 12.1589 9.14909 11.5 9.14909C10.8411 9.14909 10.2796 8.91699 9.81543 8.4528C9.35124 7.98861 9.11914 7.42708 9.11914 6.76823C9.11914 6.10938 9.35124 5.54785 9.81543 5.08366C10.2796 4.61947 10.8411 4.38737 11.5 4.38737C12.1589 4.38737 12.7204 4.61947 13.1846 5.08366C13.6488 5.54785 13.8809 6.10938 13.8809 6.76823ZM17.0853 12.2038C16.9855 12.0041 16.8457 11.8444 16.666 11.7246C16.4863 11.6048 16.2492 11.5574 15.9548 11.5824C15.6603 11.6073 15.3583 11.7446 15.0488 11.9941C14.949 12.074 14.8043 12.1738 14.6146 12.2936C14.4249 12.4134 14.0206 12.5731 13.4017 12.7728C12.7828 12.9724 12.1489 13.0723 11.5 13.0723C10.8511 13.0723 10.2322 12.9824 9.64323 12.8027C9.05425 12.623 8.625 12.4434 8.35547 12.2637L7.95117 11.9941C7.64171 11.7446 7.33974 11.6073 7.04525 11.5824C6.75076 11.5574 6.51367 11.6048 6.33398 11.7246C6.1543 11.8444 6.01454 12.0041 5.91471 12.2038C5.6951 12.653 5.68511 13.0248 5.88477 13.3193C6.08442 13.6138 6.51866 13.9807 7.1875 14.4199C8.01606 14.949 9.1441 15.2834 10.5716 15.4232L9.80794 16.2018C8.39041 17.6194 7.43707 18.5677 6.94792 19.0469C6.7283 19.2665 6.61849 19.5285 6.61849 19.833C6.61849 20.1375 6.7283 20.3995 6.94792 20.6191L7.08268 20.7539C7.3023 20.9735 7.56434 21.0833 7.86881 21.0833C8.17329 21.0833 8.43533 20.9735 8.65495 20.7539L11.515 17.8939C12.653 19.0419 13.6063 19.9952 14.375 20.7539C14.5946 20.9735 14.8567 21.0833 15.1611 21.0833C15.4656 21.0833 15.7276 20.9735 15.9473 20.7539L16.082 20.6191C16.3016 20.3995 16.4115 20.1375 16.4115 19.833C16.4115 19.5285 16.3016 19.2665 16.082 19.0469L13.222 16.2018L12.4434 15.4232C13.8509 15.2834 14.974 14.949 15.8125 14.4199C16.4813 13.9807 16.9156 13.6138 17.1152 13.3193C17.3149 13.0248 17.3049 12.653 17.0853 12.2038ZM16.3516 6.76823C16.3516 5.43056 15.8774 4.28754 14.929 3.33919C13.9807 2.39084 12.8377 1.91667 11.5 1.91667C10.1623 1.91667 9.01931 2.39084 8.07096 3.33919C7.12261 4.28754 6.64844 5.43056 6.64844 6.76823C6.64844 8.1059 7.12261 9.24891 8.07096 10.1973C9.01931 11.1456 10.1623 11.6198 11.5 11.6198C12.8377 11.6198 13.9807 11.1456 14.929 10.1973C15.8774 9.24891 16.3516 8.1059 16.3516 6.76823ZM23 4.3125V18.6875C23 19.8754 22.5782 20.8912 21.7347 21.7347C20.8912 22.5782 19.8754 23 18.6875 23H4.3125C3.12457 23 2.10883 22.5782 1.2653 21.7347C0.421766 20.8912 0 19.8754 0 18.6875V4.3125C0 3.12457 0.421766 2.10883 1.2653 1.2653C2.10883 0.421766 3.12457 0 4.3125 0H18.6875C19.8754 0 20.8912 0.421766 21.7347 1.2653C22.5782 2.10883 23 3.12457 23 4.3125Z" fill="#4ABAAE"/>
</svg>
