<svg width="20" height="18" viewBox="0 0 20 18" fill="none" xmlns="http://www.w3.org/2000/svg">
<g clip-path="url(#clip0_415_794)">
<path d="M18.5468 0.200396L0.783029 7.45846C0.783029 7.45846 -0.0597046 7.75569 0.00665237 8.30869C0.0730094 8.86168 0.756487 9.11744 0.756487 9.11744L5.22231 10.6866L5.22895 10.6935V10.6866L15.9522 3.58749C15.9522 3.58749 16.5694 3.19348 16.5495 3.58749C16.5495 3.58749 16.6623 3.65662 16.3305 3.9815C15.9987 4.30639 7.90314 11.8824 7.90314 11.8824L7.88987 12.0276L15.1759 17.8479C16.3902 18.4009 16.8348 17.2465 16.8348 17.2465L20 0.63588C20 -0.470111 18.5402 0.200396 18.5468 0.200396Z" fill="#4ABAAE"/>
<path d="M10.677 14.2535L7.79047 16.9978C7.79047 16.9978 7.56486 17.1775 7.31934 17.0669L7.8701 11.9724" fill="#4ABAAE"/>
</g>
<defs>
<clipPath id="clip0_415_794">
<rect width="20" height="18" fill="white"/>
</clipPath>
</defs>
</svg>
