<svg width="22" height="14" viewBox="0 0 22 14" fill="none" xmlns="http://www.w3.org/2000/svg">
<path fill-rule="evenodd" clip-rule="evenodd" d="M21.4958 1.45225C21.648 0.951752 21.4958 0.583252 20.7671 0.583252H18.3608C17.7485 0.583252 17.4662 0.901335 17.3131 1.25242C17.3131 1.25242 16.0893 4.18209 14.3559 6.08509C13.7949 6.63692 13.5401 6.812 13.2339 6.812C13.0808 6.812 12.8507 6.63692 12.8507 6.1355V1.45225C12.8507 0.850919 12.6821 0.583252 12.1724 0.583252H8.38842C8.00617 0.583252 7.77608 0.861919 7.77608 1.12684C7.77608 1.69609 8.64325 1.82809 8.73217 3.43042V6.91192C8.73217 7.6755 8.59192 7.81392 8.28575 7.81392C7.46992 7.81392 5.48533 4.8705 4.30742 1.50267C4.07917 0.847252 3.84817 0.583252 3.23308 0.583252H0.825C0.1375 0.583252 0 0.901335 0 1.25242C0 1.87759 0.815833 4.98325 3.79958 9.09084C5.78875 11.8958 8.58917 13.4166 11.1403 13.4166C12.6702 13.4166 12.859 13.0793 12.859 12.4972V10.3769C12.859 9.70134 13.0038 9.56659 13.4888 9.56659C13.8463 9.56659 14.4577 9.74259 15.8858 11.0947C17.5175 12.6979 17.7861 13.4166 18.7046 13.4166H21.1108C21.7983 13.4166 22.143 13.0793 21.945 12.4119C21.7268 11.7483 20.9477 10.7848 19.9146 9.64175C19.3536 8.99092 18.5121 8.28967 18.2563 7.93859C17.8998 7.4885 18.0015 7.28775 18.2563 6.88717C18.2563 6.88717 21.1897 2.83 21.4949 1.45225H21.4958Z" fill="#4ABAAE"/>
</svg>
