<svg width="24" height="23" viewBox="0 0 24 23" fill="none" xmlns="http://www.w3.org/2000/svg">
<path d="M23.25 20.25V2.75C23.25 1.375 22.1212 0.25 20.7437 0.25H3.25625C1.81875 0.25 0.75 1.31625 0.75 2.75V20.25C0.75 21.685 1.81875 22.75 3.25625 22.75H20.7437C21.4071 22.749 22.043 22.4855 22.5126 22.0171C22.9823 21.5486 23.2474 20.9133 23.25 20.25ZM18.48 13.5087C18.48 13.5087 19.895 14.905 20.2437 15.5525C20.2537 15.5662 20.2575 15.5787 20.2612 15.5837C20.4025 15.8212 20.4387 16.0087 20.3675 16.1462C20.25 16.375 19.85 16.49 19.7137 16.5H17.215C17.04 16.5 16.6775 16.455 16.2375 16.1512C15.9 15.9162 15.5662 15.5275 15.2412 15.1487C14.7562 14.5862 14.3362 14.0987 13.9137 14.0987C13.8601 14.0986 13.8069 14.1075 13.7562 14.125C13.435 14.2275 13.0275 14.6837 13.0275 15.9025C13.0275 16.2837 12.7275 16.5012 12.515 16.5012H11.37C10.98 16.5012 8.94875 16.365 7.15 14.4662C4.9425 12.1412 2.96 7.4775 2.9425 7.43625C2.8175 7.135 3.07625 6.97125 3.3575 6.97125H5.8825C6.22125 6.97125 6.33 7.17625 6.4075 7.36C6.495 7.56875 6.825 8.41125 7.365 9.35875C8.24375 10.9 8.785 11.5275 9.21625 11.5275C9.29689 11.527 9.37606 11.506 9.44625 11.4662C10.01 11.155 9.905 9.145 9.88 8.73C9.88 8.65125 9.87875 7.83125 9.59125 7.4375C9.38375 7.1525 9.0325 7.04375 8.82 7.0025C8.90665 6.8831 9.02067 6.78622 9.1525 6.72C9.53875 6.5275 10.235 6.5 10.9275 6.5H11.3125C12.0637 6.51 12.2587 6.55875 12.53 6.6275C13.0787 6.75875 13.09 7.115 13.0412 8.3275C13.0275 8.6725 13.0125 9.06375 13.0125 9.5225C13.0125 9.62125 13.0087 9.73 13.0087 9.8425C12.9912 10.4625 12.9712 11.1637 13.4087 11.4512C13.4654 11.4867 13.5307 11.5057 13.5975 11.5062C13.75 11.5062 14.2062 11.5062 15.4425 9.385C15.9862 8.44875 16.405 7.34375 16.4337 7.26125C16.4774 7.17205 16.5407 7.09386 16.6187 7.0325C16.6828 6.99924 16.7541 6.98249 16.8262 6.98375H19.795C20.12 6.98375 20.34 7.0325 20.3812 7.15625C20.4525 7.355 20.3675 7.96125 19.0112 9.79375L18.4075 10.5937C17.1775 12.2037 17.1775 12.2862 18.48 13.5087Z" fill="#4ABAAE"/>
</svg>
