<svg width="61" height="61" viewBox="0 0 61 61" fill="none" xmlns="http://www.w3.org/2000/svg">
<path d="M44.5827 28.9998C48.7156 28.9998 52.6793 30.6416 55.6018 33.5641C58.5242 36.4865 60.166 40.4502 60.166 44.5832C60.166 48.7161 58.5242 52.6798 55.6018 55.6022C52.6793 58.5247 48.7156 60.1665 44.5827 60.1665C40.4497 60.1665 36.486 58.5247 33.5636 55.6022C30.6412 52.6798 28.9993 48.7161 28.9993 44.5832C28.9993 40.4502 30.6412 36.4865 33.5636 33.5641C36.486 30.6416 40.4497 28.9998 44.5827 28.9998ZM6.33268 31.8303L31.2943 31.8332C30.0797 33.0977 29.0513 34.5287 28.24 36.0832L6.33268 36.0803L6.04935 36.1087C5.77741 36.1653 5.52755 36.2991 5.32968 36.494C5.13469 36.6907 5.00085 36.9397 4.94435 37.2108L4.91602 37.497V41.7498C4.91602 44.6087 6.19101 46.6288 8.93085 48.1022C11.2712 49.363 14.606 50.1252 18.1845 50.2357L19.0827 50.2498L19.9809 50.2357C22.4289 50.162 24.7607 49.7823 26.7383 49.1448C27.0897 50.5388 27.6053 51.8733 28.2598 53.12C25.2848 54.1117 22.0038 54.4998 19.0827 54.4998C11.3703 54.4998 1.13352 51.7912 0.680183 42.4015L0.666016 41.7498V37.497C0.666016 35.9941 1.26304 34.5528 2.32574 33.4901C3.38845 32.4274 4.82979 31.8303 6.33268 31.8303ZM44.5827 34.6722L44.3277 34.6948C44.0446 34.7466 43.784 34.8832 43.5805 35.0867C43.3771 35.2902 43.2404 35.5508 43.1887 35.8338L43.166 36.0888V43.1665H36.0827L35.8277 43.1892C35.5446 43.2409 35.284 43.3776 35.0805 43.581C34.8771 43.7845 34.7404 44.0451 34.6887 44.3282L34.666 44.5832L34.6887 44.8382C34.7404 45.1212 34.8771 45.3818 35.0805 45.5853C35.284 45.7888 35.5446 45.9255 35.8277 45.9772L36.0827 45.9998H43.166V53.0832L43.1887 53.3382C43.2404 53.6212 43.3771 53.8818 43.5805 54.0853C43.784 54.2888 44.0446 54.4255 44.3277 54.4772L44.5827 54.4998L44.8377 54.4772C45.1207 54.4255 45.3813 54.2888 45.5848 54.0853C45.7883 53.8818 45.925 53.6212 45.9767 53.3382L45.9993 53.0832V45.9998H53.0827L53.3377 45.9772C53.6207 45.9255 53.8813 45.7888 54.0848 45.5853C54.2883 45.3818 54.425 45.1212 54.4767 44.8382L54.4993 44.5832L54.4767 44.3282C54.425 44.0451 54.2883 43.7845 54.0848 43.581C53.8813 43.3776 53.6207 43.2409 53.3377 43.1892L53.0827 43.1665H45.9993V36.0888L45.9767 35.8338C45.925 35.5508 45.7883 35.2902 45.5848 35.0867C45.3813 34.8832 45.1207 34.7466 44.8377 34.6948L44.5827 34.6722ZM19.0827 0.666504C20.757 0.666504 22.415 0.996293 23.9619 1.63704C25.5088 2.27779 26.9143 3.21695 28.0983 4.40089C29.2822 5.58484 30.2214 6.99039 30.8621 8.53729C31.5029 10.0842 31.8327 11.7421 31.8327 13.4165C31.8327 15.0909 31.5029 16.7488 30.8621 18.2957C30.2214 19.8426 29.2822 21.2482 28.0983 22.4321C26.9143 23.6161 25.5088 24.5552 23.9619 25.196C22.415 25.8367 20.757 26.1665 19.0827 26.1665C15.7012 26.1665 12.4582 24.8232 10.0671 22.4321C7.67598 20.041 6.33268 16.798 6.33268 13.4165C6.33268 10.035 7.67598 6.79198 10.0671 4.40089C12.4582 2.0098 15.7012 0.666504 19.0827 0.666504ZM44.5827 6.33317C47.2127 6.33317 49.7351 7.37796 51.5948 9.2377C53.4546 11.0974 54.4993 13.6198 54.4993 16.2498C54.4993 18.8799 53.4546 21.4022 51.5948 23.262C49.7351 25.1217 47.2127 26.1665 44.5827 26.1665C41.9526 26.1665 39.4303 25.1217 37.5705 23.262C35.7108 21.4022 34.666 18.8799 34.666 16.2498C34.666 13.6198 35.7108 11.0974 37.5705 9.2377C39.4303 7.37796 41.9526 6.33317 44.5827 6.33317ZM19.0827 4.9165C14.3963 4.9165 10.5827 8.73017 10.5827 13.4165C10.5827 18.1028 14.3963 21.9165 19.0827 21.9165C23.769 21.9165 27.5827 18.1028 27.5827 13.4165C27.5827 8.73017 23.769 4.9165 19.0827 4.9165ZM44.5827 10.5832C41.4575 10.5832 38.916 13.1247 38.916 16.2498C38.916 19.375 41.4575 21.9165 44.5827 21.9165C47.7078 21.9165 50.2493 19.375 50.2493 16.2498C50.2493 13.1247 47.7078 10.5832 44.5827 10.5832Z" fill="white"/>
</svg>
