<svg width="23" height="24" viewBox="0 0 23 24" fill="none" xmlns="http://www.w3.org/2000/svg">
<path d="M5.0316 19.1875H17.9691C18.1487 19.1872 18.3219 19.2541 18.4547 19.3751C18.5874 19.4961 18.67 19.6624 18.6862 19.8413C18.7025 20.0202 18.6511 20.1987 18.5423 20.3416C18.4336 20.4845 18.2752 20.5815 18.0985 20.6135L17.9691 20.625H5.0316C4.85199 20.6253 4.67876 20.5584 4.54604 20.4374C4.41331 20.3164 4.33069 20.1501 4.31446 19.9712C4.29824 19.7923 4.34957 19.6138 4.45835 19.4709C4.56714 19.328 4.72549 19.231 4.90222 19.199L5.0316 19.1875H17.9691H5.0316ZM11.371 1.949L11.5003 1.9375C11.6686 1.93744 11.8315 1.9964 11.9607 2.10409C12.09 2.21179 12.1773 2.3614 12.2076 2.52688L12.2191 2.65625V15.2948L16.0745 11.4408C16.1934 11.3217 16.3503 11.2482 16.5179 11.233C16.6855 11.2177 16.8531 11.2618 16.9916 11.3574L17.0922 11.4408C17.2111 11.5599 17.2844 11.7169 17.2993 11.8845C17.3143 12.0521 17.27 12.2197 17.1742 12.3579L17.0908 12.4571L12.0092 17.5401C11.8901 17.659 11.7331 17.7323 11.5655 17.7472C11.3979 17.7622 11.2304 17.7179 11.0921 17.6221L10.9915 17.5401L5.90991 12.4571C5.78257 12.3304 5.70733 12.1605 5.69903 11.981C5.69072 11.8015 5.74994 11.6254 5.86503 11.4874C5.98011 11.3494 6.14271 11.2595 6.32077 11.2355C6.49884 11.2114 6.67946 11.2549 6.82704 11.3574L6.92622 11.4408L10.7816 15.2948V2.65625C10.7815 2.48803 10.8405 2.32511 10.9482 2.19588C11.0559 2.06664 11.2055 1.97928 11.371 1.949L11.5003 1.9375L11.371 1.949Z" fill="#4F4F4F"/>
</svg>
