<svg width="45" height="59" viewBox="0 0 45 59" fill="none" xmlns="http://www.w3.org/2000/svg">
<path d="M7.89961 31.325C7.89961 30.841 8.09189 30.3768 8.43414 30.0346C8.77639 29.6923 9.24059 29.5 9.72461 29.5C10.2086 29.5 10.6728 29.6923 11.0151 30.0346C11.3573 30.3768 11.5496 30.841 11.5496 31.325C11.5496 31.8091 11.3573 32.2733 11.0151 32.6155C10.6728 32.9578 10.2086 33.15 9.72461 33.15C9.24059 33.15 8.77639 32.9578 8.43414 32.6155C8.09189 32.2733 7.89961 31.8091 7.89961 31.325ZM9.72461 36.8C9.24059 36.8 8.77639 36.9923 8.43414 37.3346C8.09189 37.6768 7.89961 38.141 7.89961 38.625C7.89961 39.1091 8.09189 39.5733 8.43414 39.9155C8.77639 40.2578 9.24059 40.45 9.72461 40.45C10.2086 40.45 10.6728 40.2578 11.0151 39.9155C11.3573 39.5733 11.5496 39.1091 11.5496 38.625C11.5496 38.141 11.3573 37.6768 11.0151 37.3346C10.6728 36.9923 10.2086 36.8 9.72461 36.8ZM7.89961 45.925C7.89961 45.441 8.09189 44.9768 8.43414 44.6346C8.77639 44.2923 9.24059 44.1 9.72461 44.1C10.2086 44.1 10.6728 44.2923 11.0151 44.6346C11.3573 44.9768 11.5496 45.441 11.5496 45.925C11.5496 46.4091 11.3573 46.8733 11.0151 47.2155C10.6728 47.5578 10.2086 47.75 9.72461 47.75C9.24059 47.75 8.77639 47.5578 8.43414 47.2155C8.09189 46.8733 7.89961 46.4091 7.89961 45.925ZM17.0246 29.5C16.5406 29.5 16.0764 29.6923 15.7341 30.0346C15.3919 30.3768 15.1996 30.841 15.1996 31.325C15.1996 31.8091 15.3919 32.2733 15.7341 32.6155C16.0764 32.9578 16.5406 33.15 17.0246 33.15H35.2746C35.7586 33.15 36.2228 32.9578 36.5651 32.6155C36.9073 32.2733 37.0996 31.8091 37.0996 31.325C37.0996 30.841 36.9073 30.3768 36.5651 30.0346C36.2228 29.6923 35.7586 29.5 35.2746 29.5H17.0246ZM15.1996 38.625C15.1996 38.141 15.3919 37.6768 15.7341 37.3346C16.0764 36.9923 16.5406 36.8 17.0246 36.8H35.2746C35.7586 36.8 36.2228 36.9923 36.5651 37.3346C36.9073 37.6768 37.0996 38.141 37.0996 38.625C37.0996 39.1091 36.9073 39.5733 36.5651 39.9155C36.2228 40.2578 35.7586 40.45 35.2746 40.45H17.0246C16.5406 40.45 16.0764 40.2578 15.7341 39.9155C15.3919 39.5733 15.1996 39.1091 15.1996 38.625ZM17.0246 44.1C16.5406 44.1 16.0764 44.2923 15.7341 44.6346C15.3919 44.9768 15.1996 45.441 15.1996 45.925C15.1996 46.4091 15.3919 46.8733 15.7341 47.2155C16.0764 47.5578 16.5406 47.75 17.0246 47.75H35.2746C35.7586 47.75 36.2228 47.5578 36.5651 47.2155C36.9073 46.8733 37.0996 46.4091 37.0996 45.925C37.0996 45.441 36.9073 44.9768 36.5651 44.6346C36.2228 44.2923 35.7586 44.1 35.2746 44.1H17.0246ZM7.89961 0.300049C5.96353 0.300049 4.10675 1.06915 2.73773 2.43817C1.36871 3.80718 0.599609 5.66397 0.599609 7.60005V51.4C0.599609 53.3361 1.36871 55.1929 2.73773 56.5619C4.10675 57.9309 5.96353 58.7 7.89961 58.7H37.0996C39.0357 58.7 40.8925 57.9309 42.2615 56.5619C43.6305 55.1929 44.3996 53.3361 44.3996 51.4V20.0611C44.3983 18.6096 43.8207 17.2179 42.7936 16.1921L28.5075 1.9024C27.4811 0.876682 26.0896 0.300359 24.6385 0.300049H7.89961ZM4.24961 7.60005C4.24961 6.63201 4.63416 5.70362 5.31867 5.01911C6.00318 4.3346 6.93157 3.95005 7.89961 3.95005H22.4996V16.725C22.4996 18.1771 23.0764 19.5697 24.1032 20.5965C25.13 21.6232 26.5226 22.2 27.9746 22.2H40.7496V51.4C40.7496 52.3681 40.3651 53.2965 39.6806 53.981C38.996 54.6655 38.0677 55.05 37.0996 55.05H7.89961C6.93157 55.05 6.00318 54.6655 5.31867 53.981C4.63416 53.2965 4.24961 52.3681 4.24961 51.4V7.60005ZM39.9941 18.55H27.9746C27.4906 18.55 27.0264 18.3578 26.6841 18.0155C26.3419 17.6733 26.1496 17.2091 26.1496 16.725V4.7056L39.9941 18.55Z" fill="white"/>
</svg>
