<svg width="69" height="68" viewBox="0 0 69 68" fill="none" xmlns="http://www.w3.org/2000/svg">
<path d="M10.4954 16.1C10.4954 14.7474 11.0478 13.4502 12.0311 12.4938C13.0143 11.5373 14.3479 11 15.7385 11H54.1878C55.5784 11 56.912 11.5373 57.8953 12.4938C58.8785 13.4502 59.4309 14.7474 59.4309 16.1V39.9C59.4309 41.2526 58.8785 42.5498 57.8953 43.5062C56.912 44.4627 55.5784 45 54.1878 45H34.9632V41.6H54.1878C54.6513 41.6 55.0959 41.4209 55.4236 41.1021C55.7514 40.7833 55.9355 40.3509 55.9355 39.9V16.1C55.9355 15.6491 55.7514 15.2167 55.4236 14.8979C55.0959 14.5791 54.6513 14.4 54.1878 14.4H15.7385C15.275 14.4 14.8304 14.5791 14.5027 14.8979C14.1749 15.2167 13.9908 15.6491 13.9908 16.1V21.2H10.4954V16.1ZM34.9632 51.8H61.1786C61.6421 51.8 62.0867 51.6209 62.4144 51.3021C62.7422 50.9833 62.9263 50.5509 62.9263 50.1C62.9263 49.6491 62.7422 49.2167 62.4144 48.8979C62.0867 48.5791 61.6421 48.4 61.1786 48.4H34.9632V51.8ZM17.4862 51.8C17.0227 51.8 16.5781 51.9791 16.2504 52.2979C15.9226 52.6167 15.7385 53.0491 15.7385 53.5C15.7385 53.9509 15.9226 54.3833 16.2504 54.7021C16.5781 55.0209 17.0227 55.2 17.4862 55.2H20.9816C21.4451 55.2 21.8896 55.0209 22.2174 54.7021C22.5451 54.3833 22.7293 53.9509 22.7293 53.5C22.7293 53.0491 22.5451 52.6167 22.2174 52.2979C21.8896 51.9791 21.4451 51.8 20.9816 51.8H17.4862ZM7 29.7C7 28.3474 7.5524 27.0502 8.53567 26.0938C9.51894 25.1373 10.8525 24.6 12.2431 24.6H26.2247C27.6152 24.6 28.9488 25.1373 29.9321 26.0938C30.9154 27.0502 31.4678 28.3474 31.4678 29.7V56.9C31.4678 58.2526 30.9154 59.5498 29.9321 60.5062C28.9488 61.4627 27.6152 62 26.2247 62H12.2431C10.8525 62 9.51894 61.4627 8.53567 60.5062C7.5524 59.5498 7 58.2526 7 56.9V29.7ZM12.2431 28C11.7796 28 11.335 28.1791 11.0073 28.4979C10.6795 28.8167 10.4954 29.2491 10.4954 29.7V56.9C10.4954 57.3509 10.6795 57.7833 11.0073 58.1021C11.335 58.4209 11.7796 58.6 12.2431 58.6H26.2247C26.6882 58.6 27.1327 58.4209 27.4605 58.1021C27.7882 57.7833 27.9724 57.3509 27.9724 56.9V29.7C27.9724 29.2491 27.7882 28.8167 27.4605 28.4979C27.1327 28.1791 26.6882 28 26.2247 28H12.2431Z" fill="white"/>
</svg>
