<svg width="53" height="53" viewBox="0 0 53 53" fill="none" xmlns="http://www.w3.org/2000/svg">
<path d="M7.09082 0.124107C6.81133 0.175865 6.19023 0.403599 5.71406 0.631332C4.16133 1.37664 3.03301 2.78446 2.58789 4.50282C2.38086 5.29989 2.38086 5.66219 2.38086 22.8251C2.38086 39.988 2.38086 40.3503 2.58789 41.1473C3.09512 43.1452 4.48223 44.6255 6.52148 45.3604L7.19434 45.5985L14.8027 45.6296L22.4111 45.6606L22.9494 46.4681C24.5125 48.7868 27.0797 50.8261 29.7918 51.9026C36.1166 54.4284 43.4145 52.3788 47.5137 46.9132C51.5404 41.5407 51.6025 34.2739 47.6482 28.8704C45.6193 26.0755 42.3172 23.8602 39.0564 23.0839L38.5078 22.9597V17.877C38.4975 14.1401 38.4664 12.7116 38.3732 12.5046C38.1973 12.1112 26.852 0.21727 26.5311 0.0930519C26.1998 -0.0311661 7.78437 -0.0104637 7.09082 0.124107ZM25.0508 6.21082C25.1129 10.486 25.1232 10.5792 25.6926 11.5626C26.2723 12.5874 27.1728 13.3223 28.4254 13.7882C28.9947 13.9952 29.2639 14.0159 32.6902 14.0573L36.334 14.0987V18.3739V22.6491L35.1436 22.6595C31.8518 22.6802 28.3633 23.9327 25.8686 25.9927L25.3924 26.386L18.1256 26.4171L10.8484 26.4481L10.5482 26.7897C9.9582 27.4522 10.248 28.3735 11.1279 28.5702C11.3557 28.622 14.1609 28.6737 17.3699 28.6737C20.5686 28.6737 23.1875 28.6944 23.1875 28.7255C23.1875 28.7462 22.9184 29.1809 22.5975 29.6778C22.2766 30.1747 21.8521 30.9304 21.6658 31.3444L21.3139 32.0897H16.0863H10.8484L10.5482 32.3899C10.1238 32.8143 10.1238 33.4044 10.5482 33.8702L10.8484 34.2118L15.7344 34.2429L20.6203 34.2739L20.5686 34.5016C20.3305 35.4747 20.2477 36.3028 20.2477 37.7313C20.258 39.812 20.4443 40.9403 21.1896 43.197C21.2414 43.3729 20.9102 43.3729 14.2748 43.3522L7.29785 43.3212L6.72852 43.0417C5.6002 42.4827 4.86523 41.4786 4.6582 40.195C4.52363 39.3876 4.52363 6.26258 4.6582 5.45516C4.92734 3.79891 6.11777 2.54637 7.68086 2.28758C7.98105 2.23582 12.0078 2.20477 16.6143 2.21512L24.999 2.22547L25.0508 6.21082ZM31.4791 8.33289L34.7191 11.7489L32.0588 11.78C29.533 11.8007 29.3674 11.7903 28.8809 11.5833C28.6014 11.4591 28.1873 11.1589 27.9596 10.9208C27.2867 10.1962 27.2246 9.81317 27.2246 6.63524V3.88172L27.7318 4.3993C28.0113 4.68914 29.6986 6.44891 31.4791 8.33289ZM36.9654 24.9575C40.0088 25.3509 42.6588 26.6862 44.7705 28.8911C49.5012 33.8391 49.5426 41.6235 44.8637 46.6854C44.284 47.3065 43.0314 48.3313 42.1826 48.88C39.0357 50.8882 34.5742 51.3333 30.9305 49.9876C27.0693 48.5694 24.0881 45.3604 22.9391 41.3958C22.5457 40.0087 22.4318 38.9735 22.4939 37.2759C22.6182 33.9944 23.7775 31.2513 26.0342 28.8911C28.8809 25.8995 32.9594 24.4399 36.9654 24.9575Z" fill="white"/>
<path d="M10.5688 21.231C9.99943 21.8004 10.1858 22.701 10.9414 22.9908C11.0863 23.0426 13.6121 23.084 16.935 23.084C23.2598 23.084 23.1149 23.0943 23.4565 22.4525C23.6842 22.0074 23.5703 21.5105 23.177 21.1793L22.8561 20.9101H16.8729H10.8897L10.5688 21.231Z" fill="white"/>
<path d="M34.5639 27.4108C34.2948 27.6489 34.243 27.7835 34.1913 28.3424C34.1602 28.7151 34.0877 28.9842 34.0153 28.9842C33.9532 28.9842 33.5598 29.1395 33.1561 29.3362C31.8208 29.978 30.7959 31.2926 30.4854 32.7833C30.2887 33.6838 30.2887 34.1807 30.4854 34.9364C30.8063 36.1579 31.4481 37.1309 32.4211 37.8452C33.2079 38.4249 33.9946 38.7147 35.1229 38.8286C36.2719 38.9424 36.9551 39.2323 37.4727 39.8223C39.4913 42.1204 36.8516 45.5571 34.1188 44.1907C33.2389 43.7559 32.7006 42.9381 32.5557 41.7995C32.4315 40.8678 31.769 40.4124 31.0133 40.7229C30.444 40.961 30.2784 41.4372 30.4233 42.4206C30.6924 44.201 31.8311 45.6503 33.5081 46.3231L34.1084 46.5715L34.1706 47.3686C34.2327 48.0622 34.2741 48.1967 34.5536 48.4762C34.9987 48.911 35.5991 48.911 36.0442 48.4659C36.334 48.1864 36.3651 48.0725 36.4168 47.3686C36.4583 46.6233 36.479 46.5715 36.7377 46.5198C37.2864 46.3852 38.4147 45.7124 38.8702 45.2465C39.926 44.1596 40.3608 43.1245 40.3711 41.7063C40.3711 39.9465 39.543 38.4145 38.0524 37.4518C37.2967 36.9653 36.6549 36.7583 35.4956 36.6444C34.1395 36.5098 33.3424 36.0337 32.8663 35.0503C32.3383 33.9737 32.5454 32.6694 33.3838 31.8309C33.9532 31.2616 34.4811 31.0545 35.3817 31.0545C36.9448 31.0545 37.9696 32.0069 38.2077 33.6942C38.2698 34.2014 38.3526 34.367 38.6114 34.5948C39.0669 35.0088 39.6258 34.9985 40.0503 34.5637C40.3401 34.2739 40.3711 34.1807 40.3711 33.6114C40.3711 31.6135 38.8598 29.6467 36.8413 28.9946C36.479 28.8807 36.4686 28.8497 36.4065 28.2803C36.3547 27.7938 36.2926 27.6385 36.0235 27.4004C35.5887 27.0174 35.009 27.0174 34.5639 27.4108Z" fill="white"/>
</svg>
