<svg width="64" height="64" viewBox="0 0 64 64" fill="none" xmlns="http://www.w3.org/2000/svg">
<path d="M32.0001 3.55566C26.3743 3.55566 20.8749 5.2239 16.1972 8.34942C11.5196 11.4749 7.87377 15.9173 5.72088 21.1149C3.56799 26.3124 3.00469 32.0317 4.10223 37.5493C5.19976 43.067 7.90883 48.1353 11.8869 52.1134C15.8649 56.0914 20.9332 58.8005 26.4509 59.898C31.9686 60.9955 37.6878 60.4322 42.8853 58.2793C48.0829 56.1265 52.5253 52.4807 55.6508 47.803C58.7763 43.1253 60.4446 37.6259 60.4446 32.0001C60.4446 24.4562 57.4478 17.2212 52.1134 11.8868C46.779 6.55248 39.5441 3.55566 32.0001 3.55566ZM32.0001 56.889C27.0776 56.889 22.2656 55.4293 18.1726 52.6945C14.0796 49.9596 10.8896 46.0725 9.00579 41.5247C7.12201 36.9768 6.62912 31.9725 7.58947 27.1445C8.54981 22.3166 10.9202 17.8818 14.401 14.401C17.8818 10.9202 22.3166 8.5498 27.1445 7.58945C31.9725 6.62911 36.9768 7.12199 41.5247 9.00577C46.0725 10.8896 49.9597 14.0796 52.6945 18.1726C55.4293 22.2655 56.889 27.0775 56.889 32.0001C56.889 38.6011 54.2668 44.9316 49.5992 49.5992C44.9317 54.2668 38.6011 56.889 32.0001 56.889Z" fill="white"/>
<path d="M33.6356 32.711V19.111C33.6356 18.6395 33.4483 18.1873 33.1149 17.854C32.7815 17.5206 32.3294 17.3333 31.8579 17.3333C31.3864 17.3333 30.9342 17.5206 30.6008 17.854C30.2674 18.1873 30.0801 18.6395 30.0801 19.111V34.6132L40.569 41.7244C40.7622 41.8697 40.983 41.9741 41.2179 42.0311C41.4529 42.0882 41.697 42.0968 41.9353 42.0563C42.1737 42.0158 42.4013 41.9271 42.6042 41.7957C42.8071 41.6642 42.981 41.4928 43.1154 41.2918C43.2498 41.0908 43.3418 40.8645 43.3857 40.6268C43.4297 40.3891 43.4247 40.1449 43.371 39.9091C43.3174 39.6734 43.2162 39.4511 43.0737 39.2558C42.9313 39.0605 42.7504 38.8963 42.5423 38.7732L33.6356 32.711Z" fill="white"/>
<path d="M14.2227 31.8934C14.2064 28.6953 15.0584 25.5526 16.6878 22.8006C18.3172 20.0486 20.6629 17.7904 23.4748 16.2667C26.2868 14.7431 29.4595 14.0111 32.6547 14.1489C35.8499 14.2866 38.9479 15.2889 41.6182 17.049L43.1294 14.6312C40.5929 12.9697 37.7199 11.8906 34.7168 11.4713C31.7137 11.0521 28.6551 11.3033 25.7605 12.2066C22.866 13.11 20.2075 14.6433 17.976 16.6962C15.7445 18.7492 13.9953 21.2709 12.8542 24.0802C11.7131 26.8895 11.2084 29.9167 11.3762 32.9442C11.5441 35.9718 12.3804 38.9246 13.8251 41.5905C15.2698 44.2565 17.287 46.5693 19.7318 48.363C22.1766 50.1567 24.9883 51.3867 27.9649 51.9645L28.4449 49.2445C24.4413 48.4273 20.8415 46.2559 18.2511 43.0957C15.6608 39.9355 14.2382 35.9795 14.2227 31.8934Z" fill="white"/>
</svg>
