<svg width="23" height="23" viewBox="0 0 23 23" fill="none" xmlns="http://www.w3.org/2000/svg">
<path d="M19.1671 10.5408H21.0838C21.0838 5.62454 17.3722 1.91675 12.4492 1.91675V3.83341C16.342 3.83341 19.1671 6.65379 19.1671 10.5408Z" fill="#ffffff"/>
<path d="M12.4586 7.66657C14.474 7.66657 15.3336 8.5262 15.3336 10.5416H17.2503C17.2503 7.45094 15.5492 5.7499 12.4586 5.7499V7.66657ZM15.738 12.8828C15.5539 12.7154 15.3119 12.6261 15.0632 12.6338C14.8144 12.6415 14.5784 12.7456 14.405 12.924L12.1117 15.2824C11.5597 15.177 10.4499 14.8311 9.3076 13.6916C8.16527 12.5483 7.81931 11.4357 7.71677 10.8875L10.0733 8.59328C10.252 8.41994 10.3562 8.1839 10.3638 7.9351C10.3715 7.6863 10.2821 7.44428 10.1145 7.26024L6.57348 3.36653C6.40581 3.18191 6.17278 3.06993 5.92388 3.05436C5.67497 3.03879 5.4298 3.12087 5.24044 3.28315L3.16085 5.06661C2.99517 5.2329 2.89628 5.45421 2.88294 5.68857C2.86856 5.92815 2.59448 11.6034 6.99515 16.006C10.8342 19.8441 15.6431 20.1249 16.9676 20.1249C17.1611 20.1249 17.28 20.1192 17.3116 20.1172C17.5459 20.1041 17.7671 20.0048 17.9326 19.8384L19.7151 17.7578C19.8775 17.5686 19.9597 17.3235 19.9444 17.0746C19.929 16.8257 19.8172 16.5926 19.6327 16.4248L15.738 12.8828Z" fill="#ffffff"/>
</svg>
