<svg width="56" height="56" viewBox="0 0 56 56" fill="none" xmlns="http://www.w3.org/2000/svg">
<path d="M39.6673 49V44.3333C39.6673 41.858 38.684 39.484 36.9336 37.7337C35.1833 35.9833 32.8093 35 30.334 35H11.6673C9.19196 35 6.81799 35.9833 5.06765 37.7337C3.31732 39.484 2.33398 41.858 2.33398 44.3333V49" stroke="white" stroke-width="3" stroke-linecap="round" stroke-linejoin="round"/>
<path d="M20.9993 25.6667C26.154 25.6667 30.3327 21.488 30.3327 16.3333C30.3327 11.1787 26.154 7 20.9993 7C15.8447 7 11.666 11.1787 11.666 16.3333C11.666 21.488 15.8447 25.6667 20.9993 25.6667Z" stroke="white" stroke-width="3" stroke-linecap="round" stroke-linejoin="round"/>
<path d="M53.666 48.9999V44.3332C53.6645 42.2653 52.9762 40.2564 51.7092 38.622C50.4422 36.9876 48.6683 35.8202 46.666 35.3032" stroke="white" stroke-width="3" stroke-linecap="round" stroke-linejoin="round"/>
<path d="M37.334 7.30322C39.3416 7.81726 41.1211 8.98486 42.3918 10.6219C43.6625 12.259 44.3523 14.2725 44.3523 16.3449C44.3523 18.4173 43.6625 20.4307 42.3918 22.0678C41.1211 23.7049 39.3416 24.8725 37.334 25.3866" stroke="white" stroke-width="3" stroke-linecap="round" stroke-linejoin="round"/>
</svg>
