<svg width="65" height="62" viewBox="0 0 65 62" fill="none" xmlns="http://www.w3.org/2000/svg">
<path d="M30.7594 0.037735C26.5492 0.39489 22.1863 2.86852 19.5234 6.4136C17.5644 9.01951 16.555 11.7246 16.2894 15.0515C16.1831 16.4139 16.1831 16.4205 15.5589 17.0158C14.596 17.9352 14.0847 18.9868 13.7261 20.7725C13.5601 21.6191 13.5601 24.1391 13.7261 25.0319C14.0183 26.5664 14.5429 27.6445 15.4327 28.5506C16.0171 29.1392 16.3558 29.3575 17.0398 29.5691L17.4116 29.6882L17.757 30.6538C18.939 33.9211 20.4597 36.4411 22.5316 38.5575C24.8226 40.8856 27.3726 42.3341 30.2082 42.8963C31.1246 43.0815 33.0504 43.1476 34.0133 43.0286C37.0348 42.6582 40.0032 41.0907 42.4469 38.5707C44.5786 36.3749 46.1591 33.7095 47.3743 30.2901C47.5802 29.6948 47.5868 29.6816 47.8591 29.6022C49.2934 29.1855 50.3892 27.9487 51.02 26.0439C51.2989 25.2039 51.3853 24.4235 51.3853 22.7237C51.3786 21.1099 51.3056 20.5675 50.9271 19.4365C50.595 18.4444 50.1966 17.7963 49.486 17.0819C48.7622 16.3478 48.822 16.5065 48.7024 15.0515C48.5099 12.7564 48.0052 10.9111 47.0356 8.9666C45.4419 5.75882 42.9184 3.24551 39.7043 1.63832C38.25 0.910778 36.5567 0.368435 35.036 0.130329C34.2524 0.0112801 31.7355 -0.0416336 30.7594 0.037735ZM33.9004 2.74947C34.9961 2.8619 35.7199 3.00741 36.6762 3.31827C40.6606 4.6146 43.8282 7.6901 45.2759 11.6783C45.7938 13.1202 46.0661 14.9192 46.0329 16.7645C46.013 17.7632 46.0262 17.955 46.1259 18.1336C46.2985 18.451 46.5973 18.6627 46.9891 18.7553C47.4739 18.8677 47.7263 19.0331 47.9587 19.4035C48.4368 20.1442 48.7024 21.4009 48.7091 22.9221C48.7091 24.4499 48.4767 25.5082 47.9653 26.3084C47.7196 26.6854 47.527 26.7582 46.7235 26.7582C45.9333 26.7582 45.754 26.8508 45.5216 27.3667C45.4153 27.5982 45.1563 28.2728 44.9505 28.8747C44.0407 31.474 43.2372 33.1671 42.1415 34.728C40.3352 37.3207 37.9047 39.2057 35.3879 39.9795C34.5379 40.2375 34.0731 40.3102 32.9641 40.3631C30.434 40.4756 28.3422 39.7943 26.0578 38.1144C25.3472 37.5919 24.0789 36.3617 23.5144 35.6408C22.5449 34.4172 21.4425 32.4925 20.7851 30.8853C20.6257 30.4885 20.307 29.6287 20.0812 28.9739C19.4238 27.0889 19.3042 26.9103 18.5738 26.7582C18.3081 26.6987 18.182 26.7053 17.9296 26.7913C17.757 26.8508 17.5577 26.8772 17.4847 26.8574C17.2987 26.7979 16.9269 26.2158 16.7011 25.6338C15.9308 23.6629 16.1765 20.5212 17.1991 19.1852C17.3386 19.0066 17.4714 18.9272 17.8234 18.8214C18.3679 18.6627 18.6667 18.4643 18.846 18.16C18.9722 17.9484 18.9855 17.8426 18.9656 16.7512C18.9257 14.185 19.3507 12.2141 20.3933 10.124C21.1038 8.70866 21.9339 7.58428 23.116 6.45329C25.1281 4.5154 27.532 3.29181 30.3078 2.78915C30.9187 2.67671 32.9508 2.65687 33.9004 2.74947Z" fill="white"/>
<path d="M31.2713 10.8581C29.797 11.1822 28.3892 12.2008 27.765 13.3847C27.4662 13.9469 27.2072 14.8265 27.1142 15.607C27.0146 16.4006 27.0877 16.6718 27.4861 17.0224C27.9709 17.4457 28.5353 17.5449 29.0466 17.2803C29.465 17.0753 29.7506 16.4999 29.8369 15.6996C29.9299 14.8794 30.1689 14.4495 30.7931 13.9733C31.2846 13.5963 31.9021 13.4376 32.6924 13.4839C34.3924 13.5699 35.1494 14.4826 35.1561 16.4469C35.1561 17.3068 35.0033 18.1401 34.7311 18.7155C34.4721 19.2711 34.1135 19.6283 32.8982 20.541C31.8025 21.3611 30.9592 22.2077 30.5674 22.889C30.1888 23.5437 30.0826 23.8149 29.9498 24.4631C29.7174 25.5808 29.8634 26.2621 30.4146 26.6457C30.9326 27.0029 31.3709 26.9962 31.8889 26.6259C32.2408 26.3745 32.3338 26.1893 32.4932 25.3824C32.5662 25.012 32.6924 24.5821 32.7721 24.43C32.9912 24.0001 33.5756 23.4313 34.5584 22.7038C35.8201 21.7646 36.099 21.5199 36.5107 20.9841C37.1748 20.1045 37.5733 19.1124 37.7791 17.8028C37.9319 16.8173 37.892 15.1572 37.6928 14.5024C37.1283 12.6571 35.86 11.4468 33.9209 10.911C33.3498 10.7589 31.8689 10.7259 31.2713 10.8581Z" fill="white"/>
<path d="M30.673 29.7279C29.7168 30.1644 29.5574 31.4475 30.3742 32.0428C30.859 32.3933 31.45 32.3801 31.9613 31.9965C32.207 31.8113 32.4992 31.2557 32.4992 30.9647C32.4992 30.4819 31.9679 29.8337 31.4433 29.6816C31.098 29.5758 30.9851 29.5824 30.673 29.7279Z" fill="white"/>
<path d="M16.6288 40.4557C12.3589 41.9307 10.5858 42.6119 9.33735 43.2601C5.62523 45.1913 2.77638 48.3462 1.20255 52.2881C0.332619 54.4641 0.0138671 56.3161 0.000585772 59.332C-0.00605489 61.1112 0.0404297 61.4683 0.312697 61.6469C0.84395 61.9908 5.15374 62.0305 36.2852 61.9842C50.9145 61.9578 63.2197 61.9247 63.6314 61.9049C64.3619 61.8652 64.3884 61.8586 64.6009 61.6535C64.9662 61.3162 65.006 61.0649 64.9994 59.1667C64.9927 56.8981 64.8068 55.5224 64.2689 53.6771C63.5185 51.091 62.031 48.5645 60.0255 46.4745C58.5314 44.9202 56.4528 43.518 54.3942 42.6714C51.8973 41.6463 46.2196 39.6554 45.8012 39.6554C45.3895 39.6554 45.0907 39.8605 43.8223 41.0047C42.1621 42.5061 40.8274 43.4453 39.2402 44.2191C37.766 44.94 36.2785 45.403 34.625 45.6477C33.5758 45.8131 31.4242 45.8131 30.375 45.6477C27.0082 45.1384 24.1394 43.7164 21.3437 41.1568C19.9292 39.8671 19.6171 39.6554 19.1722 39.6621C19.0327 39.6621 17.9171 40.0126 16.6288 40.4557ZM19.1323 42.8765C19.305 43.0087 19.637 43.2865 19.8562 43.4916C21.6823 45.1781 24.8433 46.9837 27.2539 47.7179C29.0402 48.2668 30.4547 48.4653 32.4668 48.4653C34.4922 48.4719 35.6277 48.3198 37.4141 47.8105C40.1035 47.0499 43.052 45.3765 45.343 43.3064C46.1997 42.5325 46.0868 42.559 47.1227 42.8963C49.4934 43.6503 53.086 44.9797 54.1153 45.4691C56.9376 46.825 59.295 49.1928 60.7294 52.1228C61.6857 54.0938 62.1837 56.0779 62.3497 58.6839L62.3962 59.3651H32.5066H2.61701V59.1138C2.61701 58.664 2.80958 56.8319 2.91584 56.2565C3.41388 53.6242 4.46311 51.3027 6.07015 49.2788C7.23226 47.8171 9.15142 46.276 10.8182 45.4757C11.9139 44.9466 18.2956 42.6582 18.7339 42.6384C18.7737 42.6317 18.953 42.7376 19.1323 42.8765Z" fill="white"/>
</svg>
