<svg width="29" height="29" viewBox="0 0 29 29" fill="none" xmlns="http://www.w3.org/2000/svg">
<path fill-rule="evenodd" clip-rule="evenodd" d="M8.64164 0.376754C10.1568 0.307004 10.6398 0.291504 14.4993 0.291504C18.3588 0.291504 18.8419 0.308296 20.3558 0.376754C21.8696 0.445212 22.9029 0.686754 23.8071 1.0368C24.7539 1.39459 25.6128 1.95388 26.3233 2.67721C27.0466 3.38634 27.6046 4.244 27.9611 5.19209C28.3124 6.09625 28.5527 7.12959 28.6224 8.64084C28.6922 10.1585 28.7077 10.6416 28.7077 14.4998C28.7077 18.3593 28.6909 18.8424 28.6224 20.3575C28.554 21.8688 28.3124 22.9021 27.9611 23.8063C27.6046 24.7545 27.0457 25.6136 26.3233 26.3238C25.6128 27.0471 24.7539 27.6051 23.8071 27.9616C22.9029 28.3129 21.8696 28.5532 20.3583 28.6229C18.8419 28.6927 18.3588 28.7082 14.4993 28.7082C10.6398 28.7082 10.1568 28.6914 8.64164 28.6229C7.13039 28.5545 6.09706 28.3129 5.19289 27.9616C4.2447 27.605 3.38562 27.0461 2.67543 26.3238C1.95259 25.6142 1.39321 24.7555 1.03631 23.8076C0.686266 22.9034 0.446016 21.8701 0.376266 20.3588C0.306516 18.8411 0.291016 18.358 0.291016 14.4998C0.291016 10.6403 0.307807 10.1573 0.376266 8.64342C0.444724 7.12959 0.686266 6.09625 1.03631 5.19209C1.39374 4.24411 1.95354 3.38545 2.67672 2.67592C3.3859 1.95323 4.24413 1.39387 5.1916 1.0368C6.09577 0.686754 7.1291 0.446504 8.64035 0.376754H8.64164ZM20.2408 2.93425C18.7425 2.8658 18.293 2.85159 14.4993 2.85159C10.7057 2.85159 10.2562 2.8658 8.75789 2.93425C7.37193 2.99755 6.62018 3.22875 6.11902 3.4238C5.45639 3.68213 4.98235 3.98825 4.48506 4.48555C4.01366 4.94415 3.65087 5.50245 3.42331 6.1195C3.22827 6.62067 2.99706 7.37242 2.93377 8.75838C2.86531 10.2567 2.8511 10.7062 2.8511 14.4998C2.8511 18.2935 2.86531 18.743 2.93377 20.2413C2.99706 21.6273 3.22827 22.379 3.42331 22.8802C3.65064 23.4963 4.0136 24.0556 4.48506 24.5141C4.9436 24.9856 5.50289 25.3485 6.11902 25.5759C6.62018 25.7709 7.37193 26.0021 8.75789 26.0654C10.2562 26.1339 10.7044 26.1481 14.4993 26.1481C18.2943 26.1481 18.7425 26.1339 20.2408 26.0654C21.6268 26.0021 22.3785 25.7709 22.8797 25.5759C23.5423 25.3175 24.0163 25.0114 24.5136 24.5141C24.9851 24.0556 25.3481 23.4963 25.5754 22.8802C25.7704 22.379 26.0016 21.6273 26.0649 20.2413C26.1334 18.743 26.1476 18.2935 26.1476 14.4998C26.1476 10.7062 26.1334 10.2567 26.0649 8.75838C26.0016 7.37242 25.7704 6.62067 25.5754 6.1195C25.3171 5.45688 25.0109 4.98284 24.5136 4.48555C24.055 4.01418 23.4967 3.6514 22.8797 3.4238C22.3785 3.22875 21.6268 2.99755 20.2408 2.93425ZM12.6846 18.8799C13.6981 19.3018 14.8266 19.3587 15.8775 19.041C16.9283 18.7232 17.8362 18.0505 18.4462 17.1377C19.0561 16.2249 19.3303 15.1287 19.2217 14.0363C19.1132 12.9438 18.6288 11.9229 17.8512 11.148C17.3555 10.6526 16.7562 10.2733 16.0963 10.0373C15.4364 9.80138 14.7324 9.71468 14.035 9.78347C13.3376 9.85225 12.6641 10.0748 12.063 10.4351C11.4619 10.7954 10.9482 11.2845 10.5589 11.8672C10.1695 12.4499 9.91418 13.1117 9.81126 13.8049C9.70835 14.4981 9.76042 15.2055 9.96371 15.8761C10.167 16.5468 10.5165 17.164 10.9869 17.6834C11.4574 18.2028 12.0372 18.6115 12.6846 18.8799ZM9.33527 9.33575C10.0134 8.6576 10.8185 8.11965 11.7046 7.75264C12.5906 7.38562 13.5403 7.19672 14.4993 7.19672C15.4584 7.19672 16.4081 7.38562 17.2941 7.75264C18.1802 8.11965 18.9853 8.6576 19.6634 9.33575C20.3416 10.0139 20.8795 10.819 21.2465 11.7051C21.6136 12.5911 21.8025 13.5408 21.8025 14.4998C21.8025 15.4589 21.6136 16.4086 21.2465 17.2946C20.8795 18.1807 20.3416 18.9858 19.6634 19.6639C18.2938 21.0335 16.4363 21.803 14.4993 21.803C12.5624 21.803 10.7049 21.0335 9.33527 19.6639C7.96567 18.2943 7.19623 16.4367 7.19623 14.4998C7.19623 12.5629 7.96567 10.7054 9.33527 9.33575ZM23.4222 8.28434C23.5902 8.12581 23.7248 7.93517 23.8178 7.72372C23.9109 7.51227 23.9606 7.28429 23.9639 7.05329C23.9673 6.82229 23.9243 6.59296 23.8374 6.37888C23.7506 6.16481 23.6217 5.97033 23.4583 5.80697C23.2949 5.64361 23.1005 5.51469 22.8864 5.42784C22.6723 5.34099 22.443 5.29797 22.212 5.30134C21.981 5.30471 21.753 5.35439 21.5415 5.44744C21.3301 5.5405 21.1395 5.67503 20.9809 5.84309C20.6726 6.16992 20.5038 6.60404 20.5104 7.05329C20.5169 7.50254 20.6983 7.93156 21.016 8.24926C21.3337 8.56696 21.7627 8.74834 22.212 8.75489C22.6612 8.76144 23.0954 8.59264 23.4222 8.28434Z" fill="#4ABAAE"/>
</svg>
