<svg width="60" height="60" viewBox="0 0 60 60" fill="none" xmlns="http://www.w3.org/2000/svg">
<g clip-path="url(#clip0_191_587)">
<path d="M57.8377 49.2L38.6586 20.9225V7.405H43.1142V0H15.9081V7.4125H20.4003V20.93L1.18464 49.2C0.466136 50.253 0.0579905 51.4726 0.00337634 52.7296C-0.0512378 53.9867 0.24971 55.2346 0.874384 56.3412C1.49906 57.4478 2.42423 58.372 3.55202 59.0161C4.67982 59.6601 5.9683 60.0001 7.28116 60H51.7177C53.0329 59.998 54.3232 59.6558 55.4523 59.0094C56.5814 58.363 57.5075 57.4364 58.1327 56.3274C58.7579 55.2185 59.059 53.9684 59.0043 52.709C58.9497 51.4497 58.5412 50.2278 57.822 49.1725L57.8403 49.2H57.8377ZM55.4768 54.955C55.1113 55.6004 54.5709 56.1394 53.9125 56.5151C53.2541 56.8908 52.5022 57.0895 51.7359 57.09H7.28116C6.51153 57.0911 5.75594 56.8926 5.09449 56.5155C4.43304 56.1384 3.89037 55.5969 3.524 54.9483C3.15764 54.2996 2.98124 53.5681 3.0135 52.8312C3.04576 52.0943 3.28548 51.3794 3.70724 50.7625L3.69681 50.7775L23.3899 21.7775V7.4H35.6142V21.785L55.2864 50.785C55.7299 51.4125 55.9959 52.1875 55.9959 53.0225C55.9959 53.735 55.8029 54.405 55.4638 54.985L55.4742 54.965L55.4768 54.955Z" fill="white"/>
<path d="M37.5969 30.8774H21.4465L6.69432 52.6224C6.61786 52.7322 6.57448 52.8601 6.56896 52.992C6.56344 53.1238 6.59598 53.2546 6.66301 53.3699L6.6604 53.3674C6.79084 53.5849 7.03084 53.7299 7.30736 53.7324H51.7387C51.87 53.7324 51.999 53.6988 52.1122 53.6351C52.2255 53.5714 52.319 53.4798 52.383 53.3699L52.3856 53.3674C52.4529 53.2526 52.4854 53.1219 52.4794 52.9903C52.4734 52.8587 52.4292 52.7313 52.3517 52.6224L52.3543 52.6249L37.5969 30.8774Z" fill="white"/>
</g>
<defs>
<clipPath id="clip0_191_587">
<rect width="60" height="60" fill="white"/>
</clipPath>
</defs>
</svg>
