<svg width="60" height="60" viewBox="0 0 60 60" fill="none" xmlns="http://www.w3.org/2000/svg">
<path d="M32.5963 55.6256C26.8909 56.575 21.0315 55.7343 15.8232 53.219C10.6149 50.7036 6.3134 46.6371 3.50969 41.5783C0.705994 36.5194 -0.462285 30.7164 0.165396 24.9667C0.793077 19.217 3.18591 13.8028 7.0151 9.46805C10.8443 5.13327 15.9219 2.09068 21.5502 0.758367C27.1785 -0.573948 33.0813 -0.130602 38.4475 2.02748C43.8136 4.18556 48.3798 7.95248 51.5185 12.8106C54.6572 17.6687 56.2145 23.3796 55.9763 29.1586C55.0601 27.7931 53.8376 26.6605 52.4063 25.8511C52.2108 23.5909 51.7007 21.3691 50.8908 19.2501H41.3253C41.6648 21.3781 41.8853 23.6146 41.9658 25.9246C40.5658 26.7401 39.3758 27.8706 38.4868 29.2146C38.5714 25.8781 38.3346 22.5412 37.7798 19.2501H18.2218C17.7354 22.1412 17.4942 25.0683 17.5008 28.0001C17.5008 31.0906 17.7563 34.0376 18.2218 36.7501H36.8943C37.1043 38.0066 37.5418 39.1861 38.1543 40.2501H18.9708C19.5063 42.3151 20.1678 44.1911 20.9308 45.8221C23.0728 50.4351 25.6978 52.5001 28.0008 52.5001C29.1208 52.5001 30.3213 52.0101 31.5008 50.9706C31.5358 52.5561 31.8858 54.1451 32.5963 55.6256ZM35.0778 10.1781C32.9253 5.56506 30.3003 3.50006 28.0008 3.50006C25.7013 3.50006 23.0763 5.56506 20.9238 10.1781C20.1044 11.972 19.4507 13.8371 18.9708 15.7501H37.0378C36.5557 13.8369 35.8996 11.9718 35.0778 10.1781ZM15.3623 15.7501C15.9783 13.1496 16.7868 10.7731 17.7528 8.69756C18.4038 7.30106 19.1563 5.99206 19.9998 4.83706C14.4251 6.76959 9.73161 10.6431 6.77677 15.7501H15.3658H15.3623ZM14.0008 28.0001C14.0008 24.9551 14.2353 22.0081 14.6763 19.2501H5.11077C4.04336 22.0437 3.49766 25.0095 3.50077 28.0001C3.50077 31.0801 4.07127 34.0341 5.11077 36.7501H14.6763C14.2221 33.8556 13.9962 30.9299 14.0008 28.0001ZM17.7528 47.3026C16.7192 45.0387 15.9183 42.6758 15.3623 40.2501H6.77677C9.73161 45.357 14.4251 49.2305 19.9998 51.1631C19.1284 49.9515 18.3759 48.6587 17.7528 47.3026ZM49.2248 15.7501C46.2702 10.6429 41.5766 6.76931 36.0018 4.83706C36.8453 5.99206 37.5978 7.30106 38.2488 8.69756C39.2148 10.7731 40.0233 13.1496 40.6393 15.7501H49.2248ZM54.2508 35.0001C54.2508 36.8566 53.5133 38.6371 52.2005 39.9498C50.8878 41.2626 49.1073 42.0001 47.2508 42.0001C45.3943 42.0001 43.6138 41.2626 42.301 39.9498C40.9883 38.6371 40.2508 36.8566 40.2508 35.0001C40.2508 33.1435 40.9883 31.3631 42.301 30.0503C43.6138 28.7376 45.3943 28.0001 47.2508 28.0001C49.1073 28.0001 50.8878 28.7376 52.2005 30.0503C53.5133 31.3631 54.2508 33.1435 54.2508 35.0001ZM59.5008 50.7501C59.5008 55.1076 56.0008 59.5001 47.2508 59.5001C38.5008 59.5001 35.0008 55.1251 35.0008 50.7501C35.0008 49.3577 35.5539 48.0223 36.5385 47.0377C37.523 46.0532 38.8584 45.5001 40.2508 45.5001H54.2508C55.6432 45.5001 56.9785 46.0532 57.9631 47.0377C58.9476 48.0223 59.5008 49.3577 59.5008 50.7501Z" fill="white"/>
</svg>
