<svg width="57" height="57" viewBox="0 0 57 57" fill="none" xmlns="http://www.w3.org/2000/svg">
<path d="M28.5008 7.22657e-05C20.2358 7.22657e-05 10.512 1.96657 2.20955 6.24335L0.919922 6.90063V8.3666C0.919922 17.1802 1.08558 40.6999 27.2842 56.2662L28.5008 57.0001L29.7174 56.2662C55.916 40.6999 56.0817 17.1802 56.0817 8.3666V6.92023L54.801 6.25226C46.6001 1.95588 36.7658 -0.00170898 28.5008 -0.00170898V7.22657e-05ZM28.5008 4.77917C35.5706 4.77917 44.142 6.58713 51.2385 10.0018C51.2189 19.234 50.2463 37.417 28.5008 51.1558C6.7553 37.417 5.77205 19.234 5.76314 10.0018C12.9719 6.58001 21.431 4.77917 28.5008 4.77917ZM40.4583 17.9978C39.8367 18.0174 39.3094 18.4057 39.012 18.7032L26.2368 31.961L21.4488 26.2272C19.1849 23.6034 16.0784 25.634 15.3641 26.1061L26.4702 39.0023L41.6375 18.4609C41.4813 18.3101 41.297 18.1916 41.0949 18.1121C40.8929 18.0327 40.6772 17.9938 40.4601 17.9978H40.4583Z" fill="white"/>
</svg>
