<svg id="Слой_1" data-name="Слой 1" xmlns="http://www.w3.org/2000/svg" viewBox="0 0 60.61 22"><defs><style>.cls-1{fill:#fff}</style></defs><path class="cls-1" d="M5.61 17.56a7.24 7.24 0 0 1-3.69-1 5 5 0 0 1-1.3-1.06 4.8 4.8 0 0 1-.5-.74.84.84 0 0 1 .21-1.1 1.09 1.09 0 0 1 1.43-.16 4.46 4.46 0 0 1 .67.63c.2.2.36.43.56.63a3.6 3.6 0 0 0 2.2 1 5.13 5.13 0 0 0 2.33-.2 3.51 3.51 0 0 0 .9-.47 1.12 1.12 0 0 0 0-1.84 3.74 3.74 0 0 0-1-.58 20.09 20.09 0 0 0-2.75-.9c-.77-.18-1.51-.43-2.27-.65a6.22 6.22 0 0 1-.83-.38A2.28 2.28 0 0 1 .37 9a3.18 3.18 0 0 1 1.82-3.56 6.65 6.65 0 0 1 6.59.08 7.89 7.89 0 0 1 1.14.88 1.92 1.92 0 0 1 .56.9c.18.58-.11.87-.63 1a1.18 1.18 0 0 1-1.16-.4.94.94 0 0 1-.16-.2 3.28 3.28 0 0 0-2.15-1.37 4.87 4.87 0 0 0-2.65.2 2.65 2.65 0 0 0-.87.52 1.08 1.08 0 0 0 0 1.75 2.69 2.69 0 0 0 1.32.67l3.25.81a7.87 7.87 0 0 1 2 .76A2.86 2.86 0 0 1 11 13a2.86 2.86 0 0 1-.87 2.91 6 6 0 0 1-3.45 1.57ZM19.85 11.64h-5.52v4.69a2.07 2.07 0 0 1 0 .51 1 1 0 0 1-1.93-.2 1.82 1.82 0 0 1 0-.33V1.2a1.6 1.6 0 0 1 .09-.58A1 1 0 0 1 13.5 0a1 1 0 0 1 .83.88 1.78 1.78 0 0 1 0 .4v8.23c.33.09 5.13.09 5.49 0V5.37a1 1 0 0 1 .94-.92 1 1 0 0 1 1 .87 1.93 1.93 0 0 1 0 .34v11a1 1 0 0 1-2 0v-4.55a3.32 3.32 0 0 1 .09-.47ZM25.2 11.58l.07.44a4.4 4.4 0 0 0 8 1.64 1.25 1.25 0 0 1 2-.16.75.75 0 0 1 .07 1 5.85 5.85 0 0 1-.38.49 5.27 5.27 0 0 1-2.8 2A7.25 7.25 0 0 1 27 17a5.94 5.94 0 0 1-3.9-5.2 6.44 6.44 0 0 1 .49-3.5 6 6 0 0 1 4.89-3.72 7.16 7.16 0 0 1 3.61.42 6 6 0 0 1 3.72 4.6 11 11 0 0 1 .19 1.51c0 .4-.06.49-.49.49h-9.79a4.1 4.1 0 0 0-.52-.02Zm8.61-2.07c-.27-1.74-2.33-3.22-4.35-3.18s-4 1.62-4.17 3.18ZM39.26 11.62c0 .27.07.47.11.67a4.2 4.2 0 0 0 3.86 3.3 4.27 4.27 0 0 0 4-1.91 1.24 1.24 0 0 1 1.91-.24.75.75 0 0 1 .11 1.1c-.16.2-.32.4-.47.62A5.09 5.09 0 0 1 46.25 17a7.31 7.31 0 0 1-5.09.05 5.88 5.88 0 0 1-4-4.87 6.86 6.86 0 0 1 .6-4.18 6 6 0 0 1 4.59-3.39 6.77 6.77 0 0 1 4.08.54 5.94 5.94 0 0 1 3.38 4.33 13.22 13.22 0 0 1 .19 1.6c0 .34-.12.5-.47.52h-9.87a2 2 0 0 1-.4.02Zm8.58-2.06a4.31 4.31 0 0 0-4.35-3.18c-2 .11-4.08 1.68-4.14 3.18ZM56.45 12.56c.16.14.25.23.34.32 1.09.94 2.19 1.86 3.27 2.8.07.07.16.13.22.2a1 1 0 0 1-1.3 1.5c-.76-.63-1.5-1.28-2.24-1.9l-3.2-2.74c-.09-.09-.21-.15-.36-.29v8.61a1 1 0 0 1-2 0V4.92c0-.36 0-.43.38-.43h4.78a4.15 4.15 0 0 1 4.19 3.61 4 4 0 0 1-3.21 4.28c-.24.05-.51.12-.87.18ZM53 11a1 1 0 0 0 .27 0h2.82a2.53 2.53 0 0 0 .81-.12 2.36 2.36 0 0 0 1.79-1.72 2.47 2.47 0 0 0-2.44-3.07h-3.23Z"/></svg>