<svg width="31" height="19" viewBox="0 0 31 19" fill="none" xmlns="http://www.w3.org/2000/svg">
<path fill-rule="evenodd" clip-rule="evenodd" d="M30.2896 1.68287C30.504 0.977624 30.2896 0.458374 29.2627 0.458374H25.8721C25.0093 0.458374 24.6114 0.906582 24.3957 1.40129C24.3957 1.40129 22.6713 5.52946 20.2288 8.21096C19.4383 8.98854 19.0792 9.23525 18.6478 9.23525C18.4321 9.23525 18.1079 8.98854 18.1079 8.282V1.68287C18.1079 0.835541 17.8702 0.458374 17.152 0.458374H11.82C11.2814 0.458374 10.9572 0.851041 10.9572 1.22433C10.9572 2.02646 12.1791 2.21246 12.3044 4.47029V9.37604C12.3044 10.452 12.1068 10.647 11.6754 10.647C10.5258 10.647 7.72933 6.4995 6.06954 1.75392C5.74792 0.830374 5.42242 0.458374 4.55571 0.458374H1.1625C0.19375 0.458374 0 0.906582 0 1.40129C0 2.28221 1.14958 6.65838 5.35396 12.4463C8.15687 16.3988 12.1029 18.5417 15.6976 18.5417C17.8534 18.5417 18.1195 18.0664 18.1195 17.2462V14.2585C18.1195 13.3066 18.3236 13.1167 19.0069 13.1167C19.5106 13.1167 20.3722 13.3647 22.3846 15.2699C24.6837 17.529 25.0622 18.5417 26.3565 18.5417H29.7471C30.7158 18.5417 31.2015 18.0664 30.9225 17.126C30.6151 16.1909 29.5172 14.8333 28.0615 13.2226C27.271 12.3055 26.0852 11.3174 25.7248 10.8227C25.2224 10.1885 25.3657 9.90563 25.7248 9.34117C25.7248 9.34117 29.8582 3.62425 30.2883 1.68287H30.2896Z" fill="#4ABAAE"/>
</svg>
