<svg width="42" height="51" viewBox="0 0 42 51" fill="none" xmlns="http://www.w3.org/2000/svg">
<path d="M1.2526 1.34208C0.728146 1.51517 0.443309 2.08065 0.616404 2.60511C0.789499 3.12957 1.35498 3.41441 1.87944 3.24131L1.2526 1.34208ZM34.1978 11.3567L33.4531 12.0241L34.1978 11.3567ZM30.2542 50.0645C30.3438 50.6095 30.8583 50.9786 31.4032 50.889L40.284 49.4286C40.8289 49.339 41.1981 48.8246 41.1084 48.2796C41.0188 47.7346 40.5044 47.3655 39.9594 47.4551L32.0655 48.7532L30.7673 40.8593C30.6777 40.3143 30.1633 39.9452 29.6183 40.0348C29.0733 40.1244 28.7042 40.6388 28.7938 41.1838L30.2542 50.0645ZM1.56602 2.29169C1.87944 3.24131 1.87907 3.24143 1.87877 3.24153C1.87877 3.24153 1.87855 3.2416 1.87854 3.2416C1.87853 3.24161 1.8788 3.24152 1.87936 3.24134C1.88047 3.24098 1.88271 3.24025 1.88608 3.23916C1.89282 3.23699 1.90406 3.23341 1.91969 3.22851C1.95096 3.21871 1.99981 3.20367 2.06553 3.18422C2.19698 3.14533 2.39579 3.08883 2.65609 3.02146C3.17686 2.88667 3.9428 2.70858 4.9072 2.54067C6.83779 2.20453 9.55317 1.91102 12.6831 2.0824C18.9329 2.42463 26.8138 4.61542 33.4531 12.0241L34.9425 10.6893C27.864 2.7905 19.429 0.448799 12.7924 0.0853931C9.47907 -0.0960376 6.6086 0.214346 4.56414 0.570311C3.54101 0.748448 2.72213 0.938461 2.15495 1.08526C1.87128 1.15868 1.65034 1.22136 1.49803 1.26643C1.42187 1.28896 1.36285 1.30711 1.3217 1.32C1.30113 1.32644 1.28502 1.33158 1.27348 1.33529C1.2677 1.33715 1.26307 1.33865 1.25959 1.33979C1.25785 1.34036 1.25639 1.34083 1.25523 1.34121C1.25465 1.34141 1.25399 1.34162 1.2537 1.34172C1.25312 1.34191 1.2526 1.34208 1.56602 2.29169ZM33.4531 12.0241C39.9601 19.2851 39.3228 28.475 36.9105 36.0669C35.7097 39.846 34.086 43.1661 32.7588 45.5449C32.0961 46.7327 31.5095 47.6819 31.0903 48.3318C30.8808 48.6566 30.7132 48.9064 30.5991 49.0736C30.542 49.1572 30.4983 49.2201 30.4694 49.2613C30.4549 49.282 30.4442 49.2972 30.4373 49.3069C30.4339 49.3117 30.4314 49.3152 30.4299 49.3173C30.4292 49.3183 30.4287 49.319 30.4285 49.3193C30.4283 49.3195 30.4284 49.3195 30.4283 49.3195C30.4284 49.3194 30.4285 49.3193 31.241 49.9022C32.0535 50.4852 32.0537 50.4849 32.054 50.4844C32.0542 50.4842 32.0546 50.4836 32.055 50.4831C32.0558 50.482 32.0568 50.4805 32.0581 50.4788C32.0606 50.4752 32.0642 50.4702 32.0687 50.4638C32.0778 50.4511 32.0907 50.4327 32.1074 50.4089C32.1408 50.3613 32.189 50.2918 32.2507 50.2015C32.3741 50.0208 32.5514 49.7564 32.771 49.4159C33.2101 48.7351 33.8191 47.7493 34.5053 46.5193C35.8759 44.0627 37.5635 40.6165 38.8166 36.6726C41.3122 28.8186 42.1533 18.7357 34.9425 10.6893L33.4531 12.0241Z" fill="#4ABAAE"/>
</svg>
