<svg width="75" height="34" viewBox="0 0 75 34" fill="none" xmlns="http://www.w3.org/2000/svg">
<path d="M70.6733 33.272C71.4891 33.4158 72.2671 32.8709 72.4108 32.0551L74.7534 18.7599C74.8971 17.944 74.3523 17.1661 73.5364 17.0223C72.7206 16.8786 71.9426 17.4234 71.7989 18.2393L69.7166 30.0572L57.8986 27.975C57.0828 27.8312 56.3049 28.3761 56.1611 29.1919C56.0174 30.0078 56.5622 30.7857 57.3781 30.9294L70.6733 33.272ZM1.54611 8.99845C17.9157 2.60204 29.8452 1.45533 40.1315 5.26616C50.4696 9.0962 59.4731 18.0467 69.7049 32.6553L72.1622 30.9343C61.8534 16.2157 52.4081 6.61509 41.1737 2.45301C29.8874 -1.72827 17.1205 -0.308127 0.454257 6.20419L1.54611 8.99845Z" fill="#BDBDBD"/>
</svg>
