<svg width="104" height="104" viewBox="0 0 104 104" fill="none" xmlns="http://www.w3.org/2000/svg">
<circle cx="51.6985" cy="51.6985" r="50.1985" fill="url(#paint0_radial_196_499)" stroke="url(#paint1_linear_196_499)" stroke-width="3"/>
<path d="M61.654 73.4816C62.2326 73.485 62.806 73.373 63.3408 73.1524C63.8756 72.9317 64.3611 72.6067 64.769 72.1964L70.6722 66.2932C71.0779 65.8851 71.3057 65.333 71.3057 64.7575C71.3057 64.182 71.0779 63.6299 70.6722 63.2218L61.959 54.5086C61.5509 54.1028 60.9988 53.8751 60.4233 53.8751C59.8478 53.8751 59.2957 54.1028 58.8876 54.5086L55.4023 57.9721C52.9893 57.3287 50.7545 56.1442 48.8674 54.5086C47.2361 52.6185 46.0522 50.3847 45.4039 47.9736L48.8674 44.4883C49.2731 44.0802 49.5008 43.5281 49.5008 42.9526C49.5008 42.3772 49.2731 41.8251 48.8674 41.4169L40.1541 32.7037C39.746 32.298 39.1939 32.0703 38.6184 32.0703C38.043 32.0703 37.4909 32.298 37.0827 32.7037L31.2013 38.6287C30.791 39.0366 30.466 39.5221 30.2453 40.0569C30.0247 40.5917 29.9127 41.1651 29.9161 41.7437C30.1137 50.1134 33.4582 58.1012 39.2828 64.1149C45.2965 69.9395 53.2843 73.284 61.654 73.4816V73.4816ZM38.6293 37.3435L44.2711 42.9853L41.4611 45.7953C41.195 46.0446 40.9957 46.3568 40.8815 46.7031C40.7673 47.0494 40.7419 47.4189 40.8076 47.7776C41.6218 51.4162 43.3456 54.7888 45.8177 57.58C48.6068 60.0553 51.9802 61.7795 55.6201 62.5901C55.9734 62.6639 56.3395 62.6489 56.6855 62.5462C57.0315 62.4435 57.3466 62.2565 57.6024 62.0019L60.4124 59.1266L66.0542 64.7684L61.6976 69.125C54.4737 68.939 47.5811 66.0561 42.376 61.0435C37.3505 55.8363 34.4592 48.9345 34.2727 41.7001L38.6293 37.3435ZM69.1256 49.5202H73.4822C73.5387 46.9302 73.0702 44.3556 72.105 41.9515C71.1398 39.5474 69.6978 37.3636 67.8659 35.5318C66.0341 33.6999 63.8503 32.2579 61.4462 31.2927C59.0421 30.3275 56.4675 29.859 53.8775 29.9155V34.2721C55.8987 34.2021 57.9128 34.5487 59.7944 35.2903C61.676 36.0318 63.385 37.1525 64.8151 38.5826C66.2452 40.0127 67.3659 41.7217 68.1074 43.6033C68.849 45.4849 69.1955 47.499 69.1256 49.5202Z" fill="white"/>
<path d="M53.877 42.9853C58.4514 42.9853 60.4119 44.9458 60.4119 49.5202H64.7685C64.7685 42.5061 60.8911 38.6287 53.877 38.6287V42.9853Z" fill="white"/>
<defs>
<radialGradient id="paint0_radial_196_499" cx="0" cy="0" r="1" gradientUnits="userSpaceOnUse" gradientTransform="translate(51.6985 51.6985) rotate(90) scale(51.6985)">
<stop stop-color="#48CFC1"/>
<stop offset="1" stop-color="#4ABAAE"/>
</radialGradient>
<linearGradient id="paint1_linear_196_499" x1="8.13235" y1="81.9044" x2="103.397" y2="24.9779" gradientUnits="userSpaceOnUse">
<stop stop-color="#4ABAAE"/>
<stop offset="1" stop-color="white" stop-opacity="0.35"/>
</linearGradient>
</defs>
</svg>
