<svg width="607" height="550" viewBox="0 0 607 550" fill="none" xmlns="http://www.w3.org/2000/svg">
<path d="M285.716 -33.519C240.208 -30.884 193.092 -17.0973 153.918 5.01776C121.566 23.3215 92.4289 47.6011 68.9441 75.8332C36.9326 114.323 15.0069 160.529 5.35961 209.7C1.31554 230.309 0 244.473 0 267.105C0 289.738 1.31554 303.901 5.35961 324.51C14.0324 368.976 32.8398 411.089 60.1251 447.273C76.2526 468.635 96.8627 489.386 117.96 505.478C120.591 507.501 124.489 510.748 126.682 512.724C132.772 518.229 140.86 523.593 150.02 528.158C156.842 531.545 181.983 543.121 187.05 545.191C215.943 557.001 245.373 564.106 277.676 567.118C289.906 568.294 317.094 568.294 329.324 567.118C369.228 563.401 406.112 553.049 439.878 536.063C467.748 522.088 472.717 519.123 483.778 509.854C486.214 507.83 491.574 503.502 495.715 500.161C504.047 493.526 519.492 479.128 526.898 471.082C565.293 429.534 590.921 379.281 601.64 324.51C605.684 303.901 607 289.738 607 267.105C607 244.473 605.684 230.309 601.64 209.7C591.019 155.353 566.023 106.041 528.019 64.3051C520.71 56.2589 504.778 41.296 496.202 34.3791C455.031 1.11237 406.892 -20.7205 355.293 -29.5665C332.442 -33.4249 308.275 -34.8364 285.716 -33.519ZM319.822 -31.2133C384.966 -27.355 444.458 -4.39288 494.741 36.2612C507.263 46.3777 528.36 66.9871 526.849 67.5518C526.46 67.6929 524.852 69.1986 523.244 70.8455C521.636 72.4924 518.225 75.3626 515.643 77.2448C511.16 80.4915 500.295 86.8907 499.321 86.8907C499.028 86.8907 496.836 84.3969 494.4 81.3384C473.351 55.0826 446.991 32.4029 415.857 13.7697L408.451 9.34668L410.692 8.07623C413.713 6.38232 422.045 0.265381 423.848 -1.52264C425.163 -2.88721 425.212 -3.07538 424.481 -3.73413C423.75 -4.43994 423.36 -4.25171 419.852 -1.33441C416.003 1.81818 409.377 6.33527 406.94 7.37042C405.771 7.88806 405.284 7.74689 401.288 5.5354C395.442 2.33575 375.66 -6.98083 368.205 -9.99225C345.841 -19.0735 318.751 -27.2609 300.577 -30.5075C298.189 -30.9781 296.094 -31.4016 295.997 -31.4957C295.607 -31.8721 311.978 -31.6839 319.822 -31.2133ZM271.83 -28.6724C245.47 -22.1791 219.89 -12.4861 197.38 -0.44043C193.725 1.53583 190.558 3.13562 190.412 3.13562C189.584 3.13562 185.491 -2.93427 184.517 -5.66333L183.981 -7.12201L186.709 -8.29834C211.412 -18.9324 243.424 -27.0256 273.291 -30.2252C280.405 -30.9781 280.161 -30.6957 271.83 -28.6724ZM290.052 -18.9794C291.124 -1.14624 292.001 30.1443 291.465 30.6619C291.368 30.756 285.813 30.6619 279.138 30.3796C265.106 29.862 246.006 27.9799 244.983 26.9917C244.69 26.7094 250.148 16.0283 253.461 10.4289C256.823 4.68842 264.277 -6.03979 268.029 -10.5098C269.832 -12.7214 273.34 -16.4386 275.727 -18.7913C280.892 -23.8259 288.688 -29.5665 289.175 -28.7195C289.37 -28.3901 289.76 -24.0142 290.052 -18.9794ZM295.509 -26.9315C302.672 -22.4614 312.465 -13.3801 319.335 -4.81641C327.959 5.9118 340.774 26.7094 339.312 27.6034C338.63 28.0269 336.632 28.2621 325.669 29.2503C318.117 29.9561 295.071 30.9442 294.437 30.6148C294.291 30.5208 293.999 23.8392 293.853 15.746C293.512 0.641846 292.732 -17.4267 292.099 -24.767C291.904 -27.0256 291.904 -28.8607 292.099 -28.8607C292.245 -28.8607 293.804 -27.9667 295.509 -26.9315ZM280.113 -25.9434C268.273 -16.4856 256.189 -0.534546 246.152 18.8515C244.008 23.0392 242.157 26.5212 242.059 26.6153C241.816 26.8506 232.851 24.8743 227.247 23.3215C218.087 20.7807 205.955 15.8401 206.54 14.899C206.978 14.1932 217.746 5.5824 222.131 2.38281C238.941 -9.85107 259.503 -20.5322 278.164 -26.6962C282.792 -28.2019 282.89 -28.2019 280.113 -25.9434ZM317.874 -20.8145C337.314 -12.4861 356.316 -0.346313 372.931 14.3344C375.757 16.7811 378.096 18.9926 378.193 19.1808C378.632 20.169 348.375 27.1329 343.502 27.1329C342.674 27.1329 342.089 26.4271 340.822 23.9332C335.999 14.3344 326.693 0.218323 319.676 -8.15717C315.145 -13.6154 304.767 -23.5436 301.161 -25.9434C299.894 -26.7903 298.871 -27.5902 298.871 -27.6373C298.871 -28.1078 311.734 -23.4495 317.874 -20.8145ZM322.502 -22.979C336.194 -19.3559 353.588 -13.3801 368.254 -7.35724C376.488 -4.01648 393.152 3.79437 398.852 6.94696L403.286 9.39374L400.411 10.8054C396.465 12.7346 389.497 15.6519 385.064 17.2516L381.409 18.5221L375.806 13.6285C357.145 -2.84015 340.579 -13.3331 315.437 -24.5788C313.878 -25.2375 314.609 -25.0964 322.502 -22.979ZM259.844 -22.085C241.767 -14.2741 218.672 0.453613 206.247 11.9817L203.957 14.0521L200.401 11.6993C198.403 10.4289 195.723 8.4527 194.359 7.27637L191.971 5.15894L195.577 3.18268C208.099 -3.54596 223.934 -10.6981 237.82 -15.8269C246.103 -18.8854 262.377 -24.1083 263.79 -24.1553C264.18 -24.1553 262.426 -23.2142 259.844 -22.085ZM184.565 -0.158081C185.345 1.01825 186.514 2.52393 187.197 3.22974L188.415 4.50018L186.076 5.81769C181.057 8.68793 167.756 17.2987 162.201 21.2983C140.081 37.2964 119.617 57.2471 104.171 77.9506L99.9811 83.5499L97.3013 81.3384C92.0878 77.0095 87.3129 70.5161 85.2178 64.9168L84.0971 61.9995L94.6702 51.9771C119.129 28.6857 144.953 10.9465 174.382 -2.79309L181.691 -6.18091L182.422 -4.25171C182.86 -3.16949 183.835 -1.33441 184.565 -0.158081ZM192.8 9.06439C194.456 10.523 197.185 12.5463 198.841 13.6285L201.862 15.5577L194.456 22.851C186.173 31.0383 181.252 36.5906 173.895 46.0013C162.299 60.8231 151.238 79.0328 143.394 96.0661C141.737 99.6892 140.227 102.842 140.032 103.03C139.496 103.595 128.29 99.3599 119.812 95.3603C113.575 92.396 106.51 88.3964 102.32 85.385C101.735 85.0086 108.264 76.2096 115.037 68.2105C132.772 47.1776 154.064 28.7327 177.647 13.8168C184.419 9.53491 189.292 6.5235 189.633 6.47644C189.73 6.42938 191.192 7.60571 192.8 9.06439ZM416.052 16.687C440.95 31.65 464.093 50.5655 482.413 70.9867C486.75 75.7861 493.474 83.8322 495.618 86.7966L496.787 88.3023L492.451 90.2315C479.003 96.2543 459.66 102.512 441.096 106.794C439.975 107.077 439.732 106.935 439.147 105.571C434.908 95.2191 427.453 80.068 421.996 70.6573C412.69 54.6121 398.268 35.6025 387.256 24.7802C385.015 22.5687 383.163 20.6395 383.163 20.4984C383.163 20.3572 384.089 19.9337 385.258 19.6514C388.133 18.8044 396.708 15.2284 401.678 12.8287L405.82 10.8054L408.012 11.9817C409.23 12.6404 412.836 14.7578 416.052 16.687ZM219.841 23.5568C225.055 25.2978 237.674 28.5445 239.38 28.5445C239.916 28.5445 240.5 28.7327 240.646 29.015C240.793 29.2503 240.062 31.4147 238.99 33.8145C230.171 53.9062 222.034 80.5855 216.236 108.394C214.482 116.958 214.336 117.475 213.264 117.475C209.073 117.475 183.883 113.852 172.19 111.547C162.688 109.665 143.345 104.818 142.614 104.112C142.225 103.736 149.241 89.2434 153.821 81.009C166.148 58.7528 179.498 41.0136 196.698 23.9803L203.909 16.8752L209.366 19.3691C212.387 20.7336 217.064 22.6158 219.841 23.5568ZM384.917 25.8154C399.291 39.9314 414.249 60.729 425.553 82.2324C430.913 92.443 437.539 107.03 437.003 107.5C436.272 108.206 414.688 112.158 400.46 114.135C388.133 115.876 372.444 117.617 372.103 117.287C371.957 117.193 371.129 113.617 370.203 109.382C364.112 81.1502 355.098 53.3887 345.451 33.1086C344.525 31.1324 343.892 29.4855 344.087 29.4855C347.156 29.4855 370.008 24.5449 376.586 22.4746C378.193 21.957 379.753 21.5335 379.996 21.5335C380.289 21.4865 382.481 23.4627 384.917 25.8154ZM248.832 30.1913C256.725 31.4147 266.714 32.2617 279.43 32.7793C286.203 33.0616 291.855 33.3439 291.904 33.438C292.196 33.7203 292.927 120.581 292.635 120.863C292.196 121.24 255.166 120.487 243.813 119.828C224.957 118.793 217.015 118.04 217.015 117.287C217.015 117.005 217.356 115.17 217.746 113.241C223.398 85.0086 231.291 58.1881 239.916 37.9081C241.28 34.7085 242.644 31.5089 242.936 30.756C243.521 29.2503 243.131 29.2974 248.832 30.1913ZM343.015 33.5792C348.91 45.8601 356.755 67.3165 361.481 84.0675C364.015 93.1959 368.79 113.288 369.131 116.299L369.277 117.711L365.866 118.04C352.321 119.358 322.454 120.722 306.813 120.816H295.509L295.217 103.03C295.12 93.2429 294.876 73.5746 294.681 59.3174L294.389 33.3439L299.456 33.0616C302.233 32.9205 309.201 32.5911 314.95 32.3088C320.699 31.9794 328.593 31.3677 332.491 30.9442C336.389 30.4737 339.945 30.0502 340.384 30.0031C340.969 29.9561 341.748 30.9913 343.015 33.5792ZM83.415 66.9871C85.0229 71.2219 89.1157 76.8213 94.0368 81.5266L98.5681 85.8085L96.473 88.8199C84.3407 106.324 72.5496 130.133 64.9 152.624C63.1947 157.612 61.6355 161.706 61.3919 161.706C60.6123 161.706 52.5729 155.353 47.9929 151.119C42.9743 146.413 38.0045 140.39 35.7145 136.062L34.1553 133.238L36.7377 128.298C44.7284 112.911 56.5682 94.8898 68.2132 80.4915C71.9649 75.8332 81.9533 64.3051 82.2456 64.3051C82.3431 64.3051 82.879 65.5285 83.415 66.9871ZM536.351 77.5741C549.652 93.5252 561.638 111.641 571.675 131.027L575.622 138.649L570.652 143.496C565.487 148.437 557.399 154.553 550.529 158.741C545.218 161.988 539.518 165.141 539.372 164.905C539.274 164.858 538.592 162.976 537.861 160.765C530.065 137.802 519.054 116.017 504.826 95.4544C502.439 91.9725 500.587 89.1022 500.685 89.0552C500.782 88.9611 502.39 88.1141 504.242 87.126C508.773 84.7263 513.743 81.6207 517.641 78.7975C521.198 76.2096 527.191 70.7043 527.97 69.2457C528.604 68.2105 528.263 67.8341 536.351 77.5741ZM105.682 90.4197C113.721 95.5485 131.7 103.736 137.547 105.006C138.375 105.194 139.057 105.383 139.057 105.477C139.057 105.571 137.888 108.535 136.426 112.158C130.336 127.263 124.587 145.943 120.542 163.588C119.324 168.811 116.888 181.186 116.401 184.385C116.206 185.656 115.914 186.644 115.719 186.644C114.939 186.644 105.097 183.256 97.8859 180.48C85.5101 175.775 64.9487 165.282 64.1691 163.305C63.8768 162.506 69.9185 145.096 73.4266 136.767C78.6888 124.251 84.292 113.147 90.8697 102.089C94.0368 96.7719 100.225 87.3612 100.566 87.3612C100.761 87.3612 103.051 88.7258 105.682 90.4197ZM502.975 96.9131C514.425 113.57 523.488 130.462 530.894 149.001C533.086 154.459 537.179 166.035 536.984 166.223C536.935 166.27 534.645 167.399 531.966 168.67C520.71 174.128 503.901 180.433 489.137 184.762C479.539 187.585 462.096 191.961 461.803 191.679C461.657 191.537 461.024 188.008 460.342 183.774C456.736 160.482 451.133 138.461 443.435 116.864C441.68 112.017 440.95 109.335 441.339 109.241C441.632 109.147 444.945 108.3 448.697 107.359C465.214 103.218 482.755 97.3365 494.01 92.1136C496.154 91.1255 498.103 90.4197 498.297 90.5138C498.492 90.655 500.587 93.5252 502.975 96.9131ZM159.278 111.123C173.603 114.511 189.34 117.193 206.93 119.216C212.923 119.875 214.043 120.11 213.848 120.722C213.751 121.146 212.874 126.133 211.899 131.827C208.879 150.366 206.296 171.728 204.542 193.467C204.104 198.878 203.665 203.442 203.568 203.536C203.227 203.865 182.422 201.183 170.874 199.348C157.231 197.137 144.125 194.408 133.113 191.585C119.86 188.197 118.204 187.632 118.399 186.738C118.496 186.315 119.129 182.88 119.812 179.115C124.197 155.165 132.577 126.651 140.714 108.018L141.445 106.277L145.976 107.688C148.461 108.441 154.454 109.994 159.278 111.123ZM440.511 115.829C444.701 126.98 450.158 145.425 453.082 158.647C456.151 172.387 459.465 191.726 458.831 192.337C458.247 192.855 441.047 196.196 429.158 198.125C414.298 200.525 408.305 201.278 385.015 203.818C383.309 204.007 382.676 203.913 382.676 203.489C382.676 201.607 380.581 177.516 379.704 169.705C378.096 154.648 374.539 130.039 372.883 122.557C372.59 121.287 372.444 120.157 372.542 120.063C372.639 119.922 376.78 119.405 381.75 118.887C398.56 117.052 413.957 114.699 428.233 111.829C433.056 110.841 437.295 110.088 437.685 110.135C438.124 110.135 439.244 112.394 440.511 115.829ZM229.196 121.24C240.013 122.087 254.192 122.651 282.939 123.404L293.024 123.686V165.846V207.959L273.437 207.677C262.621 207.489 248.101 207.018 241.134 206.642C227.101 205.842 206.783 204.195 206.394 203.818C205.468 202.971 210.681 154.412 213.653 136.297C216.236 120.44 216.236 120.299 216.869 120.299C217.064 120.299 222.619 120.722 229.196 121.24ZM370.154 121.334C370.885 124.204 374.052 143.919 375.319 153.707C377.852 172.998 380.63 203.442 379.899 204.101C379.509 204.43 357.096 206.077 341.456 206.877C336.34 207.112 323.818 207.489 313.683 207.677L295.217 207.959L295.363 165.846L295.461 123.734L297.312 123.404C298.287 123.263 303.403 123.122 308.616 123.122C322.6 123.122 363.381 121.146 364.112 120.487C364.21 120.393 365.574 120.299 367.133 120.299C369.618 120.299 369.91 120.393 370.154 121.334ZM34.3502 138.555C38.1019 145.096 47.2133 154.459 56.2759 161.141L60.9534 164.576L59.5891 169.375C54.1808 187.914 49.7469 213.747 48.1878 235.815C47.7492 241.743 47.262 248.096 47.0671 249.837L46.726 253.036L38.6866 249.131C23.7772 241.838 13.7401 234.921 6.62642 226.969L5.01854 225.228L6.28536 218.029C10.3294 195.066 16.1763 174.457 24.508 154.177C27.334 147.26 32.45 136.297 32.7911 136.297C32.9372 136.297 33.6681 137.332 34.3502 138.555ZM579.91 148.201C589.752 170.834 596.476 193.42 600.666 217.934C602.469 228.474 602.566 229.604 601.981 229.227C601.689 229.086 600.276 229.886 598.912 231.109C594.429 234.968 585.854 240.379 577.084 244.849C570.555 248.143 554.866 254.73 554.476 254.354C554.378 254.26 554.037 250.025 553.745 244.99C552.186 219.017 548.044 194.172 541.759 173.14C540.541 168.999 540.249 167.493 540.687 167.211C541.028 167.023 544.293 165.093 547.996 162.976C557.107 157.706 565.536 151.589 571.432 145.943C574.16 143.355 576.499 141.284 576.694 141.331C576.84 141.426 578.302 144.484 579.91 148.201ZM70.1134 170.034C80.6377 176.104 95.2061 182.456 108.654 186.926C112.357 188.15 115.475 189.185 115.475 189.185C115.524 189.232 115.378 190.408 115.134 191.82C112.308 208.712 110.067 234.968 109.531 258.4C109.336 265.788 109.044 271.811 108.849 271.811C108.02 271.811 89.944 267.341 83.7561 265.647C72.306 262.447 58.8095 257.93 51.6959 254.918L49.3571 253.93L49.6495 248.896C51.3061 218.876 55.8861 189.985 62.3664 168.387L63.1459 165.893L64.4128 166.693C65.1436 167.164 67.726 168.67 70.1134 170.034ZM539.566 174.269C545.998 196.902 549.701 219.064 551.26 244.284C551.504 248.66 551.747 253.036 551.747 253.977V255.671L541.418 259.012C521.051 265.6 502.731 270.023 476.762 274.634C471.061 275.669 466.286 276.516 466.237 276.516C466.188 276.516 465.994 266.399 465.847 254.024C465.555 230.074 464.775 217.699 462.242 196.713L461.998 194.314L468.235 192.808C492.158 187.067 514.035 179.68 531.771 171.399C534.84 169.987 537.52 168.764 537.666 168.764C537.861 168.764 538.689 171.257 539.566 174.269ZM122.784 191.302C145.343 197.701 165.904 201.513 200.937 205.842L203.616 206.171L203.519 207.818C202.398 224.098 201.424 254.118 201.424 272.234V284.656L197.428 284.327C171.166 282.209 141.883 278.304 119.763 274.022L112.016 272.516L112.162 259.106C112.308 239.908 113.867 218.452 116.401 200.289C116.791 197.325 117.278 193.749 117.424 192.384C117.619 191.067 117.814 189.938 117.863 189.938C117.911 189.938 120.153 190.549 122.784 191.302ZM460.049 199.207C460.683 204.007 461.852 216.005 462.632 225.463C462.875 229.086 463.265 242.12 463.411 254.448L463.704 276.845L456.931 277.833C437.685 280.704 410.497 283.574 392.177 284.75C389.79 284.891 386.915 285.174 385.892 285.315L383.992 285.55L384.284 277.175C384.576 267.341 383.894 225.087 383.212 214.17C382.92 210.029 382.773 206.642 382.822 206.548C382.92 206.5 387.889 205.889 393.883 205.23C406.843 203.818 419.219 202.172 430.766 200.242C440.17 198.737 456.346 195.631 456.687 195.302C456.785 195.208 457.467 195.114 458.198 195.114C459.513 195.114 459.562 195.208 460.049 199.207ZM223.35 207.771C242.206 209.182 254.971 209.794 274.656 210.124L292.537 210.406V248.943C292.537 270.117 292.44 287.573 292.342 287.762C291.806 288.609 240.11 287.15 216.821 285.691C210.925 285.315 205.614 284.986 204.981 284.986H203.86V271.434C203.86 256.565 204.493 235.485 205.419 217.746L206.004 206.312L208.44 206.595C209.804 206.736 216.528 207.253 223.35 207.771ZM381.166 224.287C381.75 239.156 382.043 284.797 381.555 285.268C380.776 286.021 339.75 287.573 309.201 287.997L294.973 288.185L295.071 249.272L295.217 210.406L312.27 210.077C334.488 209.7 357.583 208.571 376.342 206.971L379.996 206.642L380.289 208.288C380.483 209.182 380.873 216.382 381.166 224.287ZM16.7122 239.156C22.6078 243.343 32.2551 248.801 40.0022 252.378L46.9697 255.577V269.458C46.9697 288.515 48.139 305.501 50.5752 321.687C51.2086 325.687 51.6471 329.075 51.5497 329.169C51.3061 329.451 39.2713 323.146 33.8143 319.899C23.1925 313.547 12.2297 304.56 7.69835 298.396C6.18791 296.372 5.5545 295.855 4.77492 296.043C3.45938 296.325 3.36194 295.573 2.58236 282.162C1.75405 267.764 2.58236 244.19 4.38513 230.827L4.67748 228.71L8.72154 232.521C10.9628 234.638 14.5684 237.603 16.7122 239.156ZM603.346 237.32C605.636 261.835 605.148 285.832 601.884 308.512C594.965 356.695 576.548 402.337 548.288 441.297C542.636 449.014 537.666 453.296 526.752 459.836C513.938 467.506 491.427 476.587 473.302 481.434C471.938 481.81 471.548 482.28 478.321 475.175C494.253 458.471 509.942 436.356 521.051 414.853L524.608 408.03L531.868 405.254C550.773 398.055 569.678 387.28 579.227 378.339C582.492 375.281 582.541 375.234 581.518 374.528C580.494 373.869 580.299 373.964 577.668 376.504C570.262 383.609 554.476 393.208 540.054 399.372C533.914 401.96 526.265 405.019 526.167 404.878C526.119 404.784 527.58 401.302 529.432 397.067C536.887 379.892 543.416 358.718 547.119 339.803C547.849 336.18 548.58 332.933 548.775 332.604C548.921 332.274 551.699 330.863 554.914 329.498C572.455 322.017 588.534 312.418 598.23 303.619C601.543 300.654 601.64 300.513 600.763 299.619C599.886 298.725 599.838 298.725 597.158 301.313C591.214 306.959 582.882 312.7 571.968 318.629C565.195 322.346 549.896 329.451 549.506 329.075C549.409 328.98 549.701 326.063 550.237 322.581C552.771 305.689 553.745 293.643 554.135 273.787L554.427 257.13L559.056 255.342C574.989 249.272 592.529 239.861 599.74 233.509C601.104 232.333 602.323 231.392 602.469 231.345C602.615 231.345 603.005 234.027 603.346 237.32ZM55.8374 259.059C68.1158 263.764 85.8999 269.034 101.443 272.563L109.336 274.351V276.986C109.336 282.68 110.359 303.148 111.041 311.335C112.016 322.628 112.942 330.768 114.501 341.12C115.183 345.731 115.67 349.637 115.524 349.731C114.744 350.484 84.8767 342.108 72.3547 337.591C66.654 335.568 54.8142 330.863 54.4244 330.486C54.3757 330.392 53.791 326.675 53.1088 322.158C50.5265 304.419 49.4058 288.562 49.4058 269.411C49.4058 262.447 49.5033 256.754 49.6495 256.754C49.7469 256.754 52.5729 257.789 55.8374 259.059ZM551.601 274.728C551.26 293.502 549.896 309.877 547.313 325.922C546.583 330.439 546.631 330.439 543.075 331.804C523.829 339.285 497.956 346.437 471.84 351.519C465.799 352.695 460.342 353.778 459.708 353.919C458.636 354.201 458.588 354.107 458.88 352.648C461.56 338.626 464.483 310.959 465.506 289.267C465.75 283.715 466.042 279.104 466.14 279.057C466.237 278.963 469.94 278.257 474.325 277.457C502.098 272.611 529.286 265.976 547.119 259.671C549.262 258.918 551.211 258.259 551.455 258.212C551.699 258.212 551.747 265.082 551.601 274.728ZM119.081 276.281C141.64 280.657 171.507 284.609 197.331 286.679L201.326 286.962L201.619 299.055C202.057 314.959 203.129 335.521 204.396 350.578C204.932 357.26 205.322 362.812 205.176 362.906C204.737 363.329 178.913 360.6 163.907 358.577C149.241 356.601 119.373 351.331 118.642 350.578C118.35 350.296 116.937 341.497 115.67 332.039C113.819 318.017 112.649 302.583 111.967 283.903C111.723 276.657 111.772 275.104 112.308 275.104C112.698 275.104 115.719 275.669 119.081 276.281ZM463.363 283.198C463.216 285.362 462.973 289.973 462.827 293.455C462.096 309.547 460.098 329.075 457.467 346.061C456.785 350.249 456.249 353.872 456.249 354.107C456.249 355.283 414.2 360.694 390.472 362.624C387.11 362.906 383.358 363.235 382.091 363.377L379.753 363.659L379.996 362.294C380.873 357.495 382.92 324.934 383.699 303.572C383.992 295.008 384.333 287.95 384.381 287.903C384.479 287.809 389.79 287.338 396.173 286.821C416.783 285.268 442.216 282.492 456.249 280.327C464.483 279.01 463.704 278.68 463.363 283.198ZM216.772 288.044C235.53 289.22 250.294 289.785 271.586 290.114L292.294 290.397L292.44 328.463L292.537 366.529L272.95 366.247C262.134 366.059 249.027 365.729 243.813 365.447C227.686 364.694 208.489 363.471 208.148 363.141C207.271 362.388 204.688 321.593 204.055 299.431L203.763 287.338H204.883C205.517 287.338 210.876 287.668 216.772 288.044ZM381.702 290.726C381.702 300.419 380.094 331.286 378.778 347.896C378.242 354.436 377.804 360.365 377.804 361.071C377.804 363.377 377.365 363.565 371.177 364.035C359.142 364.976 334.488 365.917 315.096 366.247L294.973 366.529V328.463V290.397L310.711 290.256C334.44 290.067 355.098 289.362 380.63 287.856C381.653 287.809 381.702 287.997 381.702 290.726ZM6.18791 300.466C6.91877 301.407 9.54985 304.136 12.0348 306.583C20.3178 314.676 33.2783 323.193 47.9929 330.204L52.1831 332.18L52.7678 335.286C57.0067 357.73 64.9974 383.515 73.4754 401.866C74.1575 403.419 74.6447 404.736 74.5473 404.831C73.9626 405.442 55.5938 396.596 48.3339 392.22C38.8328 386.48 29.624 378.951 24.9465 373.117C23.3387 371.046 22.8514 370.717 22.1206 371.093C21.0486 371.658 20.5614 370.529 16.8097 358.906C11.3039 341.92 7.406 325.122 5.06727 308.042C3.50811 296.608 3.55683 296.843 4.23896 297.878C4.58003 298.349 5.45706 299.525 6.18791 300.466ZM62.7561 336.509C76.1552 341.779 91.4544 346.578 107.826 350.578L116.304 352.648L118.35 362.435C122.54 382.292 128.338 401.866 134.867 418.1C135.842 420.546 136.524 422.617 136.426 422.711C136.085 423.04 131.7 422.099 120.055 419.323C107.874 416.406 96.0344 412.971 87.4103 409.912C84.0484 408.689 80.6865 407.513 79.9556 407.23C78.299 406.666 77.0809 404.36 72.8419 394.244C65.6796 377.069 59.784 357.683 55.9835 338.956C55.3014 335.333 55.1065 333.451 55.4476 333.592C55.7399 333.733 59.0531 335.05 62.7561 336.509ZM545.9 333.827C545.9 334.956 542.831 348.696 541.077 355.377C536.984 371.046 532.355 384.456 525.826 399.231C522.367 407.089 523.682 406.148 511.307 410.053C491.038 416.453 470.963 421.158 446.017 425.393C442.411 426.005 439.39 426.428 439.293 426.381C439.196 426.287 440.657 421.817 442.557 416.406C448.404 399.608 452.984 382.857 456.444 365.494C457.418 360.694 458.247 356.742 458.344 356.695C458.393 356.648 464.045 355.519 470.866 354.154C496.348 349.213 523.731 341.732 541.515 334.909C545.559 333.356 545.9 333.262 545.9 333.827ZM130.774 355.519C150.8 359.424 173.7 362.577 199.718 364.976C202.934 365.306 205.614 365.588 205.663 365.635C205.712 365.682 206.101 368.694 206.54 372.317C208.391 388.456 212.143 411.465 215.261 425.91C216.187 430.051 216.869 433.486 216.821 433.533C216.674 433.721 196.357 431.886 188.999 431.039C174.041 429.345 158.839 427.134 145.099 424.687L139.74 423.699L137.011 416.829C131.749 403.513 127.51 390.244 123.953 376.081C122.15 369.023 119.081 354.719 119.081 353.589C119.081 353.307 119.519 353.213 120.201 353.401C120.786 353.542 125.561 354.53 130.774 355.519ZM455.372 358.248C451.961 377.304 445.335 401.913 438.854 419.558L436.175 426.946L430.718 427.746C421.606 429.063 407.33 430.757 396.562 431.792C386.915 432.686 369.862 434.098 369.667 433.957C369.618 433.91 370.349 429.863 371.275 424.969C374.296 409.159 376.878 391.467 378.729 374.481C379.265 370.011 379.753 366.247 379.899 366.106C379.996 365.964 384.82 365.494 390.521 364.976C403.043 363.941 412.933 362.906 423.117 361.636C432.861 360.459 453.52 357.448 453.764 357.165C453.861 357.071 454.349 356.977 454.787 356.977C455.421 356.977 455.567 357.26 455.372 358.248ZM218.477 366.388C231.243 367.376 254.045 368.27 272.95 368.599L292.537 368.882V396.69C292.537 411.983 292.683 427.181 292.878 430.475L293.171 436.45L279.82 436.215C257.505 435.839 225.64 434.568 221.059 433.863C219.549 433.627 219.5 433.58 218.526 429.298C215.164 415.041 210.827 389.256 209.22 374.152C208.927 371.564 208.586 368.646 208.44 367.658L208.148 365.917H210.292C211.412 365.917 215.115 366.153 218.477 366.388ZM376.975 368.129C375.124 386.95 370.593 417.394 367.767 430.428L366.987 434.051L363.235 434.333C351.542 435.274 296.094 436.827 295.461 436.215C295.314 436.074 295.12 420.876 295.071 402.431L294.876 368.882L315.242 368.552C336.827 368.223 363.869 367.094 376.391 365.964C377.073 365.917 377.17 366.294 376.975 368.129ZM29.7215 381.492C39.0277 390.15 56.8606 400.69 72.5983 406.854L76.545 408.407L80.0531 415.276C91.5031 437.486 106.851 458.848 124.245 476.869C127.071 479.74 129.313 482.139 129.167 482.139C129.069 482.139 125.805 481.104 121.955 479.834C96.3755 471.505 75.4243 459.93 65.4359 448.684C63.9742 447.037 62.1227 445.061 61.2944 444.261C56.7631 439.979 43.6564 419.276 35.617 403.701C30.16 393.255 22.1206 375.375 22.1206 373.775C22.1206 373.54 22.9489 374.387 24.0208 375.657C25.044 376.881 27.6263 379.516 29.7215 381.492ZM518.566 414.429C507.116 436.545 492.158 457.248 473.594 476.587C468.722 481.716 467.066 483.127 465.604 483.504C450.353 487.503 427.697 491.785 409.961 494.138C406.892 494.514 403.627 494.985 402.799 495.126C401.922 495.267 401.191 495.22 401.191 495.079C401.191 494.938 402.896 492.444 404.991 489.527C415.954 474.328 425.212 458.048 433.495 439.321C435.493 434.804 437.247 430.663 437.441 430.098C437.734 429.251 438.465 428.969 442.996 428.31C451.474 426.993 471.694 423.04 480.416 420.97C490.794 418.57 506.922 414.053 514.717 411.465C518.079 410.336 520.857 409.442 520.954 409.489C521.051 409.536 519.979 411.747 518.566 414.429ZM91.5519 413.771C104.22 417.864 123.661 422.993 135.208 425.205L137.937 425.722L140.568 431.463C149.777 451.884 165.173 476.493 177.452 490.562L179.693 493.103L177.062 492.773C172.238 492.209 152.603 488.256 143.686 486.092L134.916 483.927L131.846 481.057C118.74 468.729 103.44 449.72 92.5263 432.263C88.6772 426.146 80.1018 410.759 80.1018 410.006C80.1018 409.865 80.9301 410.053 81.9533 410.477C82.9278 410.9 87.2642 412.359 91.5519 413.771ZM170.241 431.039C182.763 432.78 194.505 434.098 208.732 435.321C213.41 435.745 217.405 436.215 217.6 436.309C217.795 436.45 217.99 436.921 217.99 437.344C217.99 438.944 223.837 459.46 226.76 468.211C229.878 477.481 234.215 488.633 237.187 495.173C238.162 497.29 238.941 499.126 238.941 499.267C238.941 499.549 237.869 499.455 221.401 498.09C209.463 497.102 202.593 496.396 190.705 494.844L183.64 493.903L181.739 491.926C175.99 485.809 164.004 469.153 157.085 457.672C152.213 449.578 141.006 427.793 141.006 426.428C141.006 426.381 144.904 427.04 149.679 427.887C154.405 428.687 163.663 430.145 170.241 431.039ZM434.81 429.91C434.81 430.945 427.307 447.226 423.165 455.272C416.295 468.494 406.356 484.351 399.388 493.056C397.001 496.067 398.024 495.785 386.087 496.961C370.105 498.514 350.518 499.878 350.518 499.361C350.518 499.22 351.347 496.914 352.419 494.279C358.119 479.598 363.43 461.248 368.79 437.58C369.082 436.356 369.374 436.309 379.753 435.556C394.857 434.474 417.952 432.027 429.938 430.192C432.228 429.816 434.226 429.534 434.469 429.487C434.664 429.487 434.81 429.675 434.81 429.91ZM236.261 437.203C244.057 437.58 259.941 438.144 271.537 438.38C283.182 438.662 292.781 438.944 292.829 438.991C292.829 439.038 293.171 452.825 293.463 469.67C293.804 486.468 294.194 500.396 294.291 500.584C294.778 501.384 253.022 500.631 244.398 499.737L241.865 499.502L240.354 496.349C234.166 483.222 227.004 462.612 222.131 444.026C220.182 436.592 220.085 436.027 221.303 436.309C221.742 436.403 228.514 436.827 236.261 437.203ZM365.574 440.591C362.017 457.436 354.806 481.81 349.495 495.126L347.595 499.878L340.871 500.161C337.217 500.349 325.718 500.631 315.389 500.82L296.581 501.102L296.289 487.268C296.094 479.645 295.802 465.671 295.607 456.213L295.314 438.944L307.447 438.662C326.449 438.238 352.711 437.344 358.314 436.968C361.14 436.78 364.112 436.592 364.941 436.592L366.451 436.497L365.574 440.591ZM535.62 457.53C523.731 472.352 492.304 502.09 488.504 502.137C487.968 502.137 486.75 503.078 485.727 504.254C483.485 506.842 477.541 511.171 466.724 518.135C455.615 525.24 451.815 527.311 444.068 530.369C430.474 535.827 413.372 540.674 396.319 543.967C388.084 545.567 372.493 548.014 370.641 548.014C370.154 548.014 372.493 546.838 375.806 545.426C384.576 541.709 397.975 535.121 406.063 530.604C427.551 518.606 444.896 506.325 462.339 490.797L468.673 485.151L473.546 483.833C480.757 481.857 494.107 477.434 501.318 474.611C510.819 470.941 524.511 464.212 530.552 460.307C533.525 458.377 536.01 456.778 536.107 456.778C536.204 456.73 535.961 457.107 535.62 457.53ZM75.3756 460.401C86.4846 468.541 104.805 477.01 124.879 483.269L133.308 485.904L138.278 490.421C162.055 512.159 193.238 531.875 226.37 546.132C228.465 547.026 229.976 547.826 229.732 547.92C228.368 548.343 204.932 544.062 193.872 541.332C184.663 539.074 169.948 534.463 165.076 532.298C157.426 528.863 141.542 519.406 130.092 511.407C124.587 507.548 121.127 504.207 118.642 500.349C118.058 499.408 117.375 498.608 117.229 498.608C116.304 498.655 115.573 499.549 115.865 500.255C116.645 502.278 101.248 488.915 90.3338 478.093C82.7816 470.611 71.3315 458.142 72.0136 458.142C72.1598 458.142 73.6702 459.177 75.3756 460.401ZM459.952 489.668C443.435 504.584 422.094 519.406 400.46 530.934C388.815 537.145 367.377 546.838 360.75 548.908C359.045 549.426 344.72 550.837 341.115 550.837C339.214 550.837 339.263 550.79 344.477 547.496C350.665 543.544 357.778 538.415 363.917 533.475C370.787 527.969 387.256 511.736 392.859 504.96C395.637 501.572 398.219 498.608 398.609 498.326C398.95 498.043 400.704 497.667 402.555 497.479C413.664 496.396 444.506 491.079 456.736 488.068C463.411 486.421 463.509 486.468 459.952 489.668ZM147.34 489.386C155.575 491.315 169.217 493.95 176.672 495.126L181.934 495.926L184.955 499.267C202.496 518.512 226.127 537.004 247.955 548.532L251.366 550.367L248.199 550.084C239.331 549.332 233.435 547.167 213.605 537.615C192.264 527.311 174.041 516.159 157.037 503.031C151.677 498.89 142.127 490.891 139.545 488.397C138.473 487.362 138.424 487.268 139.301 487.503C139.837 487.645 143.443 488.492 147.34 489.386ZM198.159 498.09C209.415 499.502 219.646 500.443 233.094 501.431C236.992 501.714 240.159 501.996 240.208 502.043C240.208 502.09 242.108 505.619 244.398 509.901C252.925 525.805 260.185 536.204 271.05 547.873C275.192 552.39 275.922 552.014 264.667 551.261L257.212 550.79L250.294 547.073C229.294 535.827 209.804 521.288 193.141 504.349C187.002 498.137 185.784 496.726 186.514 496.726C186.709 496.726 191.923 497.338 198.159 498.09ZM393.98 499.878C388.864 506.748 372.006 523.735 362.943 531.169C356.511 536.439 347.01 543.215 339.994 547.544C333.66 551.402 332.783 551.684 324.305 551.731L319.774 551.778L321.771 549.52C329.518 540.862 339.556 524.158 346.572 508.395L349.349 502.137L355.196 501.808C362.163 501.384 383.602 499.596 388.036 499.126C389.79 498.89 392.031 498.702 393.054 498.655L394.906 498.608L393.98 499.878ZM262.085 502.843C271.196 503.125 282.159 503.407 286.447 503.454L294.242 503.549L294.34 507.313C294.632 515.359 295.997 544.673 296.289 548.438L296.581 552.39L287.372 552.155L278.164 551.872L274.12 547.732C266.909 540.25 258.674 529.522 252.73 519.735C249.563 514.512 244.008 504.349 243.57 502.89C243.277 501.902 243.326 501.808 244.349 502.043C244.983 502.184 252.974 502.56 262.085 502.843ZM345.013 505.995C342.382 512.253 333.66 528.722 330.201 534.039C326.157 540.203 320.992 547.073 318.215 550.037L316.071 552.249H307.544H299.017L298.676 547.873C298.14 540.627 296.922 513.289 296.922 508.113V503.313L309.006 503.266C315.632 503.219 324.987 503.031 329.811 502.89C334.634 502.702 340.384 502.513 342.576 502.466L346.572 502.372L345.013 505.995ZM430.182 538.086C428.817 539.356 408.159 547.449 397.293 550.978C373.516 558.742 346.962 563.777 322.99 565.189C320.31 565.33 317.143 565.565 315.925 565.706C312.416 566.13 313.927 565.471 319.384 564.2C330.103 561.707 346.669 556.766 356.17 553.19C359.045 552.108 361.92 551.496 367.815 550.79C388.913 548.249 411.423 543.779 425.066 539.403C431.107 537.474 430.718 537.568 430.182 538.086ZM190.851 543.026C201.814 545.897 216.479 548.626 231.486 550.602C238.892 551.59 240.646 551.967 247.078 554.272C255.41 557.237 267.201 560.907 275.971 563.259C282.792 565.094 282.159 565.283 272.56 564.247C245.032 561.33 221.303 555.684 195.236 545.85C188.512 543.309 182.665 540.815 185.491 541.615C185.93 541.756 188.366 542.415 190.851 543.026ZM260.282 554.79C262.085 555.637 264.813 556.813 266.324 557.425C271.781 559.589 268.565 558.883 259.551 556.013C254.533 554.413 250.294 552.955 250.148 552.814C250.001 552.719 251.512 552.719 253.461 552.908C256.043 553.096 257.895 553.613 260.282 554.79ZM342.43 555.307C334.976 557.707 318.994 562.13 317.874 562.13C317.532 562.13 321.235 560.248 326.01 557.942L334.683 553.708L340.043 553.284C351.054 552.39 351.201 552.531 342.43 555.307ZM278.212 554.978C278.797 555.449 280.892 557.048 282.89 558.601C284.839 560.154 287.031 561.801 287.665 562.271L288.883 563.118L287.665 562.789C284.888 562.083 274.022 558.131 268.955 555.966L263.547 553.66L270.368 553.943C275.679 554.131 277.433 554.366 278.212 554.978ZM289.809 554.602H296.776L297.117 559.589C297.312 562.365 297.361 564.718 297.215 564.812C296.825 565.189 289.662 560.813 285.375 557.566C281.428 554.602 280.551 553.755 282.11 554.319C282.549 554.46 286.008 554.602 289.809 554.602ZM323.964 556.343C321.577 557.519 318.166 559.072 316.412 559.824C312.563 561.377 307.788 563.212 308.129 562.977C308.275 562.883 310.467 560.86 313.099 558.46L317.776 554.131L323.087 554.178H328.349L323.964 556.343ZM310.37 557.801C307.057 560.766 301.21 564.953 300.333 564.953C299.992 564.953 299.358 559.307 299.358 556.154V554.602H306.667H313.976L310.37 557.801Z" fill="white"/>
</svg>
